<?xml version="1.0" encoding="UTF-8"?>
<svg version="1.1" xmlns="http://www.w3.org/2000/svg" width="1791" height="844">
<path d="M0 0 C591.03 0 1182.06 0 1791 0 C1791 278.52 1791 557.04 1791 844 C1199.97 844 608.94 844 0 844 C0 565.48 0 286.96 0 0 Z " fill="#2D323C" transform="translate(0,0)"/>
<path d="M0 0 C591.03 0 1182.06 0 1791 0 C1791 278.52 1791 557.04 1791 844 C1199.97 844 608.94 844 0 844 C0 565.48 0 286.96 0 0 Z M84 36 C84 275.25 84 514.5 84 761 C371.76 761 659.52 761 956 761 C956 777.5 956 794 956 811 C1195.58 811 1435.16 811 1682 811 C1682 743.68 1682 676.36 1682 607 C1611.05 607 1540.1 607 1467 607 C1467 573.34 1467 539.68 1467 505 C1561.71 505 1656.42 505 1754 505 C1754 390.82 1754 276.64 1754 159 C1659.62 159 1565.24 159 1468 159 C1468 118.41 1468 77.82 1468 36 C1011.28 36 554.56 36 84 36 Z " fill="#2D323C" transform="translate(0,0)"/>
<path d="M0 0 C128.7 0 257.4 0 390 0 C390 95.04 390 190.08 390 288 C261.3 288 132.6 288 0 288 C0 192.96 0 97.92 0 0 Z " fill="#2D323C" transform="translate(1362,215)"/>
<path d="M0 0 C454.74 0 909.48 0 1378 0 C1378 16.83 1378 33.66 1378 51 C923.26 51 468.52 51 0 51 C0 34.17 0 17.34 0 0 Z " fill="#2D323C" transform="translate(87,39)"/>
<path d="M0 0 C238.26 0 476.52 0 722 0 C722 16.83 722 33.66 722 51 C483.74 51 245.48 51 0 51 C0 34.17 0 17.34 0 0 Z " fill="#2D323C" transform="translate(958,609)"/>
<path d="M0 0 C128.7 0 257.4 0 390 0 C390 17.16 390 34.32 390 52 C261.3 52 132.6 52 0 52 C0 34.84 0 17.68 0 0 Z " fill="#2E333D" transform="translate(1362,161)"/>
<path d="M0 0 C456.72 0 913.44 0 1384 0 C1384 40.59 1384 81.18 1384 123 C1478.38 123 1572.76 123 1670 123 C1670 237.18 1670 351.36 1670 469 C1575.29 469 1480.58 469 1383 469 C1383 502.66 1383 536.32 1383 571 C1453.95 571 1524.9 571 1598 571 C1598 638.32 1598 705.64 1598 775 C1358.42 775 1118.84 775 872 775 C872 758.5 872 742 872 725 C584.24 725 296.48 725 0 725 C0 485.75 0 246.5 0 0 Z M3 3 C3 19.83 3 36.66 3 54 C457.74 54 912.48 54 1381 54 C1381 37.17 1381 20.34 1381 3 C926.26 3 471.52 3 3 3 Z M2 56 C2 276.11 2 496.22 2 723 C289.1 723 576.2 723 872 723 C872 672.84 872 622.68 872 571 C1040.3 571 1208.6 571 1382 571 C1382 537.34 1382 503.68 1382 469 C1347.02 469 1312.04 469 1276 469 C1276 354.82 1276 240.64 1276 123 C1310.98 123 1345.96 123 1382 123 C1382 100.89 1382 78.78 1382 56 C926.6 56 471.2 56 2 56 Z M1278 125 C1278 142.16 1278 159.32 1278 177 C1406.7 177 1535.4 177 1668 177 C1668 159.84 1668 142.68 1668 125 C1539.3 125 1410.6 125 1278 125 Z M1278 179 C1278 274.04 1278 369.08 1278 467 C1406.7 467 1535.4 467 1668 467 C1668 371.96 1668 276.92 1668 179 C1539.3 179 1410.6 179 1278 179 Z M874 573 C874 589.83 874 606.66 874 624 C1112.26 624 1350.52 624 1596 624 C1596 607.17 1596 590.34 1596 573 C1357.74 573 1119.48 573 874 573 Z M874 626 C874 674.51 874 723.02 874 773 C1112.26 773 1350.52 773 1596 773 C1596 724.49 1596 675.98 1596 626 C1357.74 626 1119.48 626 874 626 Z " fill="#C9CACD" transform="translate(84,36)"/>
<path d="M0 0 C1.08510361 -0.01427032 2.17020721 -0.02854065 3.28819275 -0.04324341 C5.57835895 -0.06409999 7.86867948 -0.07172936 10.15893555 -0.06689453 C13.61971757 -0.07028058 17.07351653 -0.14810113 20.53320312 -0.23046875 C32.64752507 -0.3549622 41.78346874 0.20396248 51.640625 7.65307617 C54.46427843 9.91972872 54.46427843 9.91972872 57.6953125 10.9465332 C60.86169116 12.11563663 62.47014206 13.18515679 64.58984375 15.8046875 C65.14526367 18.29174805 65.14526367 18.29174805 65.1953125 21.06640625 C65.22391357 21.96447998 65.25251465 22.86255371 65.28198242 23.7878418 C65.18940407 28.46490026 64.86454388 33.13478531 64.58984375 37.8046875 C57.32984375 37.8046875 50.06984375 37.8046875 42.58984375 37.8046875 C42.58984375 32.5246875 42.58984375 27.2446875 42.58984375 21.8046875 C24.10984375 21.8046875 5.62984375 21.8046875 -13.41015625 21.8046875 C-13.41015625 36.3246875 -13.41015625 50.8446875 -13.41015625 65.8046875 C-8.07150391 65.57845703 -8.07150391 65.57845703 -2.625 65.34765625 C0.90666724 65.24564046 4.43815702 65.16707368 7.97045898 65.09057617 C10.38464422 65.02606343 12.79834026 64.93801312 15.21069336 64.82397461 C34.12424332 63.95370716 47.24939584 67.41073666 62.58984375 78.8046875 C65.19076407 81.40560782 64.89722977 82.59968379 65.02319336 86.22900391 C65.06500229 87.36423492 65.10681122 88.49946594 65.14988708 89.6690979 C65.27853499 94.87792366 65.38595817 100.08644149 65.45483398 105.29638672 C65.49484462 108.04340505 65.57122771 110.78563833 65.68041992 113.53076172 C66.53262603 135.4760308 66.53262603 135.4760308 63.45880127 140.74255371 C60.14557317 144.12316414 55.96358757 145.31561916 51.58984375 146.8046875 C49.8661459 148.09998472 48.15632542 149.41395676 46.4609375 150.74609375 C37.41534257 155.96487762 26.46118052 154.87871688 16.32739258 154.7722168 C12.66303921 154.74227489 9.00570614 154.79236463 5.34179688 154.84960938 C-8.07716378 154.90691088 -16.74700474 154.39497593 -27.41015625 145.8046875 C-29.32718521 144.88022229 -31.25134139 143.97033393 -33.18359375 143.078125 C-36.198692 141.27589914 -37.2111818 140.50197627 -38.18457031 137.09082031 C-38.3969449 133.81081275 -38.28601003 130.70622375 -38.03515625 127.4296875 C-37.99003906 126.31207031 -37.94492187 125.19445312 -37.8984375 124.04296875 C-37.78084719 121.2913556 -37.61689414 118.55080286 -37.41015625 115.8046875 C-33.93100684 115.77580936 -30.45188794 115.75793063 -26.97265625 115.7421875 C-25.48282227 115.72961914 -25.48282227 115.72961914 -23.96289062 115.71679688 C-23.01865234 115.71357422 -22.07441406 115.71035156 -21.1015625 115.70703125 C-20.22701416 115.70179443 -19.35246582 115.69655762 -18.45141602 115.69116211 C-16.41015625 115.8046875 -16.41015625 115.8046875 -15.41015625 116.8046875 C-15.41015625 122.4146875 -15.41015625 128.0246875 -15.41015625 133.8046875 C12.80484375 133.3096875 12.80484375 133.3096875 41.58984375 132.8046875 C41.91984375 117.9546875 42.24984375 103.1046875 42.58984375 87.8046875 C38.81933594 87.87429688 35.04882812 87.94390625 31.1640625 88.015625 C27.48367334 88.06251191 23.80331834 88.09889004 20.12280273 88.13427734 C17.57870418 88.16432003 15.03470806 88.20516678 12.4909668 88.25732422 C8.81924058 88.33068682 5.14889179 88.36427137 1.4765625 88.390625 C-0.21005241 88.43707657 -0.21005241 88.43707657 -1.93074036 88.48446655 C-10.19782493 88.48793463 -15.53051063 86.27804367 -22.41015625 81.8046875 C-23.70284879 81.0351031 -24.99693935 80.26785777 -26.29296875 79.50390625 C-27.89785156 78.50810547 -27.89785156 78.50810547 -29.53515625 77.4921875 C-30.63085938 76.81542969 -31.7265625 76.13867188 -32.85546875 75.44140625 C-35.41015625 73.8046875 -35.41015625 73.8046875 -36.41015625 72.8046875 C-37.17631183 65.56626604 -37.20943922 58.21740113 -37.37309456 50.94504642 C-37.45034609 47.5783344 -37.5594643 44.21967126 -37.74755859 40.85717773 C-38.8752905 19.12891793 -38.8752905 19.12891793 -34.81237793 13.65008545 C-30.87129312 10.24153055 -26.49176427 8.35437964 -21.60136414 6.68334961 C-19.29576059 5.75881548 -17.57290586 4.58838244 -15.56518555 3.13647461 C-10.61354901 -0.07980342 -5.76921411 0.01363125 0 0 Z " fill="#FBFBFA" transform="translate(341.41015625,287.1953125)"/>
<path d="M0 0 C15.71934139 0.05153953 27.36916156 1.69938608 39.43457031 12.65380859 C41.09896278 14.18812557 41.09896278 14.18812557 44.01708984 14.96069336 C44.0402115 27.19949665 44.05800402 39.43829479 44.06890202 51.67711544 C44.07413123 57.35945848 44.08122958 63.04178663 44.0925293 68.72412109 C44.10335681 74.20298472 44.10936639 79.68183398 44.11196709 85.16070747 C44.11382158 87.25598947 44.11744266 89.35127064 44.1228199 91.44654655 C44.13002852 94.37046919 44.13108086 97.29433169 44.13061523 100.21826172 C44.13421051 101.09363586 44.13780579 101.96901001 44.14151001 102.87091064 C44.13114201 108.8466412 44.13114201 108.8466412 43.01708984 109.96069336 C37.86634864 110.50641775 35.31419632 109.24166762 31.07958984 106.39819336 C26.51752681 103.61242034 26.51752681 103.61242034 21.32958984 102.64819336 C18.28863476 103.85310009 16.61221208 105.00815827 14.07568359 106.97241211 C8.46483085 110.74043744 3.40907792 111.11043075 -3.23291016 111.08569336 C-4.92589233 111.08931885 -4.92589233 111.08931885 -6.65307617 111.09301758 C-19.07035083 110.62009488 -28.108887 105.03008344 -37.98291016 97.96069336 C-38.97291016 97.30069336 -39.96291016 96.64069336 -40.98291016 95.96069336 C-41.3619748 93.26588833 -41.54679696 90.80682413 -41.59228516 88.10131836 C-41.60938538 87.31932068 -41.6264856 86.537323 -41.644104 85.73162842 C-41.67246571 84.07405786 -41.69206086 82.41631785 -41.70361328 80.75854492 C-41.73266819 78.2317362 -41.82560861 75.71233448 -41.92041016 73.18725586 C-42.16015694 61.61412985 -42.16015694 61.61412985 -39.41845703 57.76342773 C-37.03729562 56.13258595 -34.6306276 55.10725979 -31.98291016 53.96069336 C-30.50878662 52.9257373 -30.50878662 52.9257373 -29.00488281 51.86987305 C-18.67953075 44.77724622 -9.31072538 44.99782043 2.89208984 45.46069336 C4.75529349 45.50092273 6.61858193 45.53740663 8.48193359 45.57006836 C12.99752338 45.65034551 17.50105617 45.80688332 22.01708984 45.96069336 C22.01708984 37.71069336 22.01708984 29.46069336 22.01708984 20.96069336 C18.27494141 20.97229492 14.53279297 20.98389648 10.67724609 20.99584961 C7.06990646 21.00363883 3.46256775 21.00971636 -0.14477539 21.015625 C-2.66007911 21.02066699 -5.17537987 21.02750038 -7.69067383 21.03613281 C-11.2972079 21.0482043 -14.90370338 21.05392285 -18.51025391 21.05834961 C-20.20866676 21.06609154 -20.20866676 21.06609154 -21.94139099 21.07398987 C-23.50289635 21.07410316 -23.50289635 21.07410316 -25.09594727 21.07421875 C-26.01750107 21.07643936 -26.93905487 21.07865997 -27.88853455 21.08094788 C-29.98291016 20.96069336 -29.98291016 20.96069336 -30.98291016 19.96069336 C-31.08128226 18.63025711 -31.11369608 17.29475992 -31.11572266 15.96069336 C-31.11765625 14.75413086 -31.11765625 14.75413086 -31.11962891 13.52319336 C-31.11576172 12.67756836 -31.11189453 11.83194336 -31.10791016 10.96069336 C-31.11177734 10.11506836 -31.11564453 9.26944336 -31.11962891 8.39819336 C-31.11833984 7.59381836 -31.11705078 6.78944336 -31.11572266 5.96069336 C-31.11459473 5.21819336 -31.1134668 4.47569336 -31.11230469 3.71069336 C-30.66929203 -2.28084393 -5.09663568 0.04626969 0 0 Z " fill="#F9FAFA" transform="translate(477.98291015625,331.039306640625)"/>
<path d="M0 0 C0.33 0 0.66 0 1 0 C1 40.26 1 80.52 1 122 C95.71 122 190.42 122 288 122 C288 236.18 288 350.36 288 468 C157.98 468 27.96 468 -106 468 C-106 353.82 -106 239.64 -106 122 C-71.02 122 -36.04 122 0 122 C0 99.89 0 77.78 0 55 C-455.4 55 -910.8 55 -1380 55 C-1380 275.11 -1380 495.22 -1380 722 C-1093.23 722 -806.46 722 -511 722 C-511 722.33 -511 722.66 -511 723 C-798.1 723 -1085.2 723 -1381 723 C-1381 502.23 -1381 281.46 -1381 54 C-925.27 54 -469.54 54 0 54 C0 36.18 0 18.36 0 0 Z M-104 124 C-104 141.16 -104 158.32 -104 176 C24.7 176 153.4 176 286 176 C286 158.84 286 141.68 286 124 C157.3 124 28.6 124 -104 124 Z M-104 178 C-104 273.04 -104 368.08 -104 466 C24.7 466 153.4 466 286 466 C286 370.96 286 275.92 286 178 C157.3 178 28.6 178 -104 178 Z " fill="#F4F4F4" transform="translate(1466,37)"/>
<path d="M0 0 C0.91961517 -0.03542908 1.83923035 -0.07085815 2.78671265 -0.10736084 C7.07634364 -0.23236444 11.36585508 -0.32235388 15.65673828 -0.39160156 C17.89721328 -0.4378234 20.1373665 -0.50555743 22.37646484 -0.59667969 C38.02530641 -1.2220733 48.82791277 0.54501671 61.67129517 9.83612061 C63.80430112 11.44986794 63.80430112 11.44986794 66.88645935 12.90028381 C69.88342747 15.45288329 70.1042163 15.65895764 70.41819763 19.29301453 C70.4386138 20.94972585 70.42577039 22.60704517 70.38696289 24.26342773 C70.38944534 25.16948761 70.3919278 26.07554749 70.39448547 27.00906372 C70.39540352 30.00266145 70.35360183 32.99403494 70.31103516 35.98730469 C70.30238186 38.06426627 70.29623542 40.1412397 70.29249573 42.21821594 C70.27526063 47.68447646 70.22112033 53.14979891 70.16021729 58.61572266 C70.11657838 63.08915722 70.0990634 67.56251433 70.08294582 72.03612041 C70.06338186 77.35323691 70.03278869 82.67026442 69.99853516 87.98730469 C69.99210936 89.00835485 69.98568356 90.02940502 69.97906303 91.0813961 C69.95818029 93.95466673 69.92988771 96.82775284 69.89868164 99.70092773 C69.89285065 100.56066696 69.88701965 101.42040619 69.88101196 102.30619812 C69.80527307 108.17275427 69.80527307 108.17275427 68.68994141 109.28808594 C63.65596237 110.02220788 61.33664401 109.31860253 57.18994141 106.35058594 C53.20033334 103.54780245 50.74223719 101.85992528 45.68994141 102.28808594 C44.04716851 103.4082896 42.42504491 104.558913 40.81494141 105.72558594 C30.0332034 112.3129321 17.11464968 111.28071054 5.203125 108.46337891 C-2.98395675 105.97626627 -10.51098924 102.64195397 -15.31005859 95.28808594 C-17.36475712 89.30880847 -17.43315022 83.04906618 -17.37255859 76.78808594 C-17.37071564 75.97746704 -17.36887268 75.16684814 -17.36697388 74.33166504 C-17.15239904 61.67286614 -17.15239904 61.67286614 -13.65332031 57.14355469 C-11.3022596 55.51888689 -8.91571255 54.4598864 -6.31005859 53.28808594 C-5.32900146 52.59714844 -4.34794434 51.90621094 -3.3371582 51.19433594 C6.99988667 44.11397878 16.35561095 44.32496587 28.56494141 44.78808594 C30.42814505 44.8283153 32.29143349 44.86479921 34.15478516 44.89746094 C38.67037494 44.97773809 43.17390773 45.1342759 47.68994141 45.28808594 C47.68994141 36.70808594 47.68994141 28.12808594 47.68994141 19.28808594 C30.19994141 19.28808594 12.70994141 19.28808594 -5.31005859 19.28808594 C-5.31005859 0.20270873 -5.31005859 0.20270873 0 0 Z " fill="#FBFBFB" transform="translate(1042.31005859375,331.7119140625)"/>
<path d="M0 0 C6.93 0 13.86 0 21 0 C21 18.48 21 36.96 21 56 C25.29 53.36 29.58 50.72 34 48 C38.48242188 46.96484375 38.48242188 46.96484375 42.46875 46.9375 C43.1963855 46.92984619 43.924021 46.92219238 44.67370605 46.91430664 C46.1892664 46.90894067 47.70502375 46.92315039 49.22021484 46.95703125 C51.50138681 47.00002614 53.76998666 46.95725035 56.05078125 46.90625 C66.96154716 46.8667161 73.23994563 49.56180463 82 56 C83.90432337 57.16623224 85.81913433 58.31575899 87.75 59.4375 C91.88537549 61.88537549 91.88537549 61.88537549 93 63 C93.10056691 65.88606016 93.13615375 68.74822575 93.12939453 71.63476562 C93.13202301 72.99319832 93.13202301 72.99319832 93.13470459 74.3790741 C93.13912454 77.38815193 93.13618461 80.39717152 93.1328125 83.40625 C93.1334855 85.48750825 93.13445549 87.56876643 93.13571167 89.65002441 C93.13718884 94.01815538 93.13503348 98.38626593 93.13037109 102.75439453 C93.1246738 108.36714553 93.1279527 113.97984872 93.13394356 119.59259796 C93.13754866 123.89211389 93.13641082 128.19161838 93.13381577 132.49113464 C93.13314636 134.56129461 93.1339754 136.6314556 93.13629532 138.70161438 C93.13882102 141.58951586 93.13498242 144.47733878 93.12939453 147.36523438 C93.13141876 148.22968674 93.13344299 149.0941391 93.13552856 149.98478699 C93.11426237 155.88573763 93.11426237 155.88573763 92 157 C90.52347336 157.09880797 89.04232764 157.13079245 87.5625 157.1328125 C86.22058594 157.13474609 86.22058594 157.13474609 84.8515625 157.13671875 C83.91054688 157.13285156 82.96953125 157.12898437 82 157.125 C81.05898438 157.12886719 80.11796875 157.13273438 79.1484375 157.13671875 C78.25382813 157.13542969 77.35921875 157.13414062 76.4375 157.1328125 C75.61121094 157.13168457 74.78492188 157.13055664 73.93359375 157.12939453 C72 157 72 157 71 156 C70.90482197 153.23061034 70.87445735 150.48622841 70.88647461 147.71655273 C70.88632858 146.84833893 70.88618256 145.98012512 70.8860321 145.08560181 C70.88673154 142.20157414 70.89452537 139.3176102 70.90234375 136.43359375 C70.90420782 134.43962133 70.90563177 132.44564845 70.90663147 130.45167542 C70.91045752 125.19254298 70.92028855 119.93343797 70.93133545 114.67431641 C70.94334185 108.3701255 70.94795139 102.06592544 70.95378876 95.76172638 C70.96350026 86.17446515 70.98265621 76.58726416 71 67 C54.5 67 38 67 21 67 C21.01160156 73.41308594 21.02320313 79.82617188 21.03515625 86.43359375 C21.04026294 90.48502705 21.04507671 94.5364564 21.04882812 98.58789062 C21.05481683 105.02515482 21.06191786 111.46240485 21.07543945 117.8996582 C21.08626745 123.08674843 21.09227665 128.27382349 21.09487724 133.46092415 C21.09673165 135.4445628 21.10035256 137.42820058 21.10573006 139.41183281 C21.11293932 142.18009136 21.11399099 144.94828638 21.11352539 147.71655273 C21.11712067 148.54517319 21.12071594 149.37379364 21.12442017 150.2275238 C21.11405216 155.88594784 21.11405216 155.88594784 20 157 C18.52347336 157.09880797 17.04232764 157.13079245 15.5625 157.1328125 C14.22058594 157.13474609 14.22058594 157.13474609 12.8515625 157.13671875 C11.91054688 157.13285156 10.96953125 157.12898437 10 157.125 C9.05898438 157.12886719 8.11796875 157.13273438 7.1484375 157.13671875 C6.25382813 157.13542969 5.35921875 157.13414062 4.4375 157.1328125 C3.61121094 157.13168457 2.78492188 157.13055664 1.93359375 157.12939453 C0 157 0 157 -1 156 C-1.09891728 154.00269167 -1.12632274 152.00183137 -1.12698364 150.0020752 C-1.12980347 148.69795181 -1.13262329 147.39382843 -1.13552856 146.05018616 C-1.13358396 144.59140001 -1.13153578 143.132614 -1.12939453 141.67382812 C-1.13074851 140.14822854 -1.13252842 138.62262928 -1.13470459 137.09703064 C-1.13927934 132.94218844 -1.13748919 128.78737096 -1.1343255 124.63252831 C-1.13180212 120.29412136 -1.13413938 115.9557166 -1.13571167 111.61730957 C-1.13753343 104.33031838 -1.13512689 97.04333731 -1.13037109 89.75634766 C-1.12492846 81.31928144 -1.12669111 72.88223938 -1.1321975 64.44517374 C-1.13672845 57.21462245 -1.13737927 49.98407846 -1.13475883 42.75352621 C-1.13319596 38.42919105 -1.13300257 34.10486727 -1.13629532 29.78053284 C-1.13917377 25.71602301 -1.13719882 21.65154447 -1.13140106 17.58703804 C-1.13007332 16.09100458 -1.13046781 14.59496851 -1.13266373 13.09893608 C-1.13537466 11.06526658 -1.13138091 9.03159136 -1.12698364 6.9979248 C-1.12660662 5.85712212 -1.12622959 4.71631943 -1.12584114 3.54094696 C-1 1 -1 1 0 0 Z " fill="#F8FBFB" transform="translate(794,283)"/>
<path d="M0 0 C3.47914941 -0.02887814 6.95826831 -0.04675687 10.4375 -0.0625 C11.92733398 -0.07506836 11.92733398 -0.07506836 13.44726562 -0.08789062 C14.39150391 -0.09111328 15.33574219 -0.09433594 16.30859375 -0.09765625 C17.62041626 -0.10551147 17.62041626 -0.10551147 18.95874023 -0.11352539 C21 0 21 0 22 1 C22.12538693 4.07382396 22.18612861 7.12625009 22.20532227 10.20141602 C22.21522186 11.16716553 22.22512146 12.13291504 22.23532104 13.12792969 C22.26703901 16.33656316 22.291734 19.54521148 22.31640625 22.75390625 C22.3369669 24.97208553 22.35796312 27.19026082 22.37937927 29.40843201 C22.43469182 35.25935641 22.48406046 41.1103167 22.53222656 46.96130371 C22.58237471 52.9267091 22.63809559 58.89206208 22.69335938 64.85742188 C22.8010532 76.57156986 22.90247307 88.28576327 23 100 C23.54378296 99.31836792 24.08756592 98.63673584 24.64782715 97.93444824 C25.36410278 97.03762329 26.08037842 96.14079834 26.81835938 95.21679688 C27.52714233 94.32891479 28.23592529 93.44103271 28.96618652 92.52624512 C31.42651991 89.47021011 33.94925374 86.48099262 36.5 83.5 C40.38692895 78.93848007 44.16907957 74.3113479 47.890625 69.61328125 C50.91083581 65.87157563 54.02395848 62.21088481 57.14453125 58.55273438 C59.20820799 56.1310729 61.03385461 53.9378768 62.5625 51.1328125 C66.75722169 47.46243103 71.90295449 48.48590026 77.25 48.6875 C78.37664062 48.71005859 79.50328125 48.73261719 80.6640625 48.75585938 C83.44405232 48.81475746 86.22135332 48.89695799 89 49 C89 53.28851973 86.47355284 55.26504263 83.75 58.3125 C82.64437649 59.57538536 81.53891221 60.83841014 80.43359375 62.1015625 C79.86366699 62.74770508 79.29374023 63.39384766 78.70654297 64.05957031 C76.04978325 67.08044675 73.42990058 70.1325233 70.8125 73.1875 C70.31580811 73.76604736 69.81911621 74.34459473 69.30737305 74.94067383 C65.44158928 79.45468937 61.66158108 84.03167656 57.9140625 88.64453125 C55.63380496 91.4506441 53.32208587 94.22847815 51 97 C52.31375382 100.80192395 53.87486542 103.26753639 56.625 106.1875 C60.14976078 110.03384003 63.44166936 113.98933347 66.6796875 118.078125 C69.53538986 121.67419464 72.42004153 125.24596414 75.3125 128.8125 C75.86558838 129.49562256 76.41867676 130.17874512 76.98852539 130.88256836 C79.67836815 134.19257256 82.3906177 137.47665892 85.17578125 140.70703125 C85.67360107 141.28541748 86.1714209 141.86380371 86.68432617 142.4597168 C88.03631415 144.02248751 89.39677438 145.57791731 90.7578125 147.1328125 C92.97662159 149.97010497 94.51466823 152.72838689 96 156 C92.97147042 159.02852958 84.19103772 157.74191211 80.14160156 157.78930664 C71.96233947 157.58427753 71.96233947 157.58427753 67.828125 155.07421875 C65.54895215 152.18241109 63.80970601 149.20576494 62 146 C60.12577183 143.49271767 58.12181457 141.09762111 56.125 138.6875 C55.10499179 137.41783372 54.08807441 136.14567835 53.07421875 134.87109375 C52.56810059 134.2354248 52.06198242 133.59975586 51.54052734 132.94482422 C49.98458292 130.98053685 48.43777445 129.00943483 46.89453125 127.03515625 C46.39743652 126.39940674 45.9003418 125.76365723 45.38818359 125.10864258 C44.44512841 123.90038288 43.50394156 122.6906618 42.56494141 121.47924805 C40.50348805 118.83578785 38.45674588 116.28759289 36 114 C34.58298411 115.7288805 33.16640314 117.45811746 31.75 119.1875 C30.96109375 120.15042969 30.1721875 121.11335938 29.359375 122.10546875 C28.58078125 123.06066406 27.8021875 124.01585937 27 125 C26.30318115 125.75804932 25.6063623 126.51609863 24.88842773 127.29711914 C22.64294877 130.51104256 22.4793791 132.25670535 22.42578125 136.140625 C22.39806641 137.29304687 22.37035156 138.44546875 22.34179688 139.6328125 C22.33212891 140.82648438 22.32246094 142.02015625 22.3125 143.25 C22.27062947 145.63027634 22.22525587 148.01049457 22.17578125 150.390625 C22.16458252 151.44282227 22.15338379 152.49501953 22.1418457 153.57910156 C22 156 22 156 21 157 C19.52347336 157.09880797 18.04232764 157.13079245 16.5625 157.1328125 C15.22058594 157.13474609 15.22058594 157.13474609 13.8515625 157.13671875 C12.91054688 157.13285156 11.96953125 157.12898437 11 157.125 C10.05898438 157.12886719 9.11796875 157.13273438 8.1484375 157.13671875 C7.25382813 157.13542969 6.35921875 157.13414062 5.4375 157.1328125 C4.61121094 157.13168457 3.78492188 157.13055664 2.93359375 157.12939453 C1 157 1 157 0 156 C-0.09674566 153.98771955 -0.12187008 151.97198631 -0.12025452 149.9573822 C-0.12162918 148.64339951 -0.12300385 147.32941681 -0.12442017 145.97561646 C-0.12088054 144.50579812 -0.11724573 143.03598 -0.11352539 141.56616211 C-0.11324353 140.02908836 -0.11340123 138.49201447 -0.1139679 136.9549408 C-0.11425591 132.7691714 -0.10835852 128.58343041 -0.10139394 124.39766765 C-0.09516109 120.02809844 -0.09455666 115.65852865 -0.09336853 111.28895569 C-0.09025501 103.00872953 -0.08204135 94.7285165 -0.07201904 86.44829613 C-0.06085854 77.02402841 -0.05534761 67.59976008 -0.05032361 58.1754874 C-0.03985875 38.78365081 -0.02225891 19.39182646 0 0 Z " fill="#FAFBFA" transform="translate(680,283)"/>
<path d="M0 0 C0.33 0 0.66 0 1 0 C1 33.66 1 67.32 1 102 C71.95 102 142.9 102 216 102 C216 169.32 216 236.64 216 306 C-23.58 306 -263.16 306 -510 306 C-510 289.5 -510 273 -510 256 C-797.76 256 -1085.52 256 -1382 256 C-1382 255.67 -1382 255.34 -1382 255 C-950.855 254.505 -950.855 254.505 -511 254 C-510.67 203.84 -510.34 153.68 -510 102 C-341.7 102 -173.4 102 0 102 C0 68.34 0 34.68 0 0 Z M-508 104 C-508 120.83 -508 137.66 -508 155 C-269.74 155 -31.48 155 214 155 C214 138.17 214 121.34 214 104 C-24.26 104 -262.52 104 -508 104 Z M-508 157 C-508 205.51 -508 254.02 -508 304 C-269.74 304 -31.48 304 214 304 C214 255.49 214 206.98 214 157 C-24.26 157 -262.52 157 -508 157 Z " fill="#DBDDDE" transform="translate(1466,505)"/>
<path d="M0 0 C0.67740234 -0.04576172 1.35480469 -0.09152344 2.05273438 -0.13867188 C4.05078125 -0.18359375 4.05078125 -0.18359375 7.6875 0.4375 C11.6875 5.11781496 11.6875 5.11781496 11.6875 8.4375 C13.62623142 7.48166032 15.5634433 6.52273808 17.5 5.5625 C18.57894531 5.02882813 19.65789063 4.49515625 20.76953125 3.9453125 C23.76588265 2.46528861 23.76588265 2.46528861 26.6875 0.4375 C31.55129041 -0.31663958 36.45939526 -0.45047276 41.375 -0.5625 C42.08681427 -0.57973114 42.79862854 -0.59696228 43.53201294 -0.61471558 C59.27067137 -0.8149023 70.2253502 4.80115823 82.6875 14.4375 C84.55205346 16.30205346 83.81408685 18.97156348 83.82302856 21.45271301 C83.81999222 22.74939156 83.81999222 22.74939156 83.81689453 24.07226562 C83.81952301 25.43069832 83.81952301 25.43069832 83.82220459 26.8165741 C83.82662454 29.82565193 83.82368461 32.83467152 83.8203125 35.84375 C83.8209855 37.92500825 83.82195549 40.00626643 83.82321167 42.08752441 C83.82468884 46.45565538 83.82253348 50.82376593 83.81787109 55.19189453 C83.8121738 60.80464553 83.8154527 66.41734872 83.82144356 72.03009796 C83.82504866 76.32961389 83.82391082 80.62911838 83.82131577 84.92863464 C83.82064636 86.99879461 83.8214754 89.0689556 83.82379532 91.13911438 C83.82632102 94.02701586 83.82248242 96.91483878 83.81689453 99.80273438 C83.81891876 100.66718674 83.82094299 101.5316391 83.82302856 102.42228699 C83.80176237 108.32323763 83.80176237 108.32323763 82.6875 109.4375 C81.21097336 109.53630797 79.72982764 109.56829245 78.25 109.5703125 C76.90808594 109.57224609 76.90808594 109.57224609 75.5390625 109.57421875 C74.12753906 109.56841797 74.12753906 109.56841797 72.6875 109.5625 C71.27597656 109.56830078 71.27597656 109.56830078 69.8359375 109.57421875 C68.94132813 109.57292969 68.04671875 109.57164062 67.125 109.5703125 C66.29871094 109.56918457 65.47242188 109.56805664 64.62109375 109.56689453 C62.6875 109.4375 62.6875 109.4375 61.6875 108.4375 C61.59232197 105.66811034 61.56195735 102.92372841 61.57397461 100.15405273 C61.57382858 99.28583893 61.57368256 98.41762512 61.5735321 97.52310181 C61.57423154 94.63907414 61.58202537 91.7551102 61.58984375 88.87109375 C61.59170782 86.87712133 61.59313177 84.88314845 61.59413147 82.88917542 C61.59795752 77.63004298 61.60778855 72.37093797 61.61883545 67.11181641 C61.63084185 60.8076255 61.63545139 54.50342544 61.64128876 48.19922638 C61.65100026 38.61196515 61.67015621 29.02476416 61.6875 19.4375 C45.8475 19.4375 30.0075 19.4375 13.6875 19.4375 C13.69910156 25.85058594 13.71070313 32.26367188 13.72265625 38.87109375 C13.72776294 42.92252705 13.73257671 46.9739564 13.73632812 51.02539062 C13.74231683 57.46265482 13.74941786 63.89990485 13.76293945 70.3371582 C13.77376745 75.52424843 13.77977665 80.71132349 13.78237724 85.89842415 C13.78423165 87.8820628 13.78785256 89.86570058 13.79323006 91.84933281 C13.80043932 94.61759136 13.80149099 97.38578638 13.80102539 100.15405273 C13.80462067 100.98267319 13.80821594 101.81129364 13.81192017 102.6650238 C13.80155216 108.32344784 13.80155216 108.32344784 12.6875 109.4375 C11.21097336 109.53630797 9.72982764 109.56829245 8.25 109.5703125 C6.90808594 109.57224609 6.90808594 109.57224609 5.5390625 109.57421875 C4.12753906 109.56841797 4.12753906 109.56841797 2.6875 109.5625 C1.27597656 109.56830078 1.27597656 109.56830078 -0.1640625 109.57421875 C-1.05867187 109.57292969 -1.95328125 109.57164062 -2.875 109.5703125 C-3.70128906 109.56918457 -4.52757812 109.56805664 -5.37890625 109.56689453 C-7.3125 109.4375 -7.3125 109.4375 -8.3125 108.4375 C-8.4100858 107.04839367 -8.43881639 105.65437051 -8.43948364 104.26184082 C-8.44230347 103.36159683 -8.44512329 102.46135284 -8.44802856 101.53382874 C-8.44600433 100.53846603 -8.4439801 99.54310333 -8.44189453 98.51757812 C-8.44364685 97.47540634 -8.44539917 96.43323456 -8.44720459 95.35948181 C-8.45162538 91.89588787 -8.44868431 88.43234451 -8.4453125 84.96875 C-8.44598547 82.5736083 -8.44695544 80.17846666 -8.44821167 77.7833252 C-8.44968895 72.75609692 -8.44753311 67.72888638 -8.44287109 62.70166016 C-8.4371738 56.24143309 -8.44045264 49.78124757 -8.44644356 43.32102203 C-8.45004835 38.37298263 -8.44891096 33.42495315 -8.44631577 28.47691345 C-8.44564627 26.09415177 -8.4464757 23.71138919 -8.44879532 21.32862854 C-8.45132051 18.00486851 -8.44748313 14.68117679 -8.44189453 11.35742188 C-8.44391876 10.36205917 -8.44594299 9.36669647 -8.44802856 8.34117126 C-8.44520874 7.44092728 -8.44238892 6.54068329 -8.43948364 5.61315918 C-8.43910662 4.826325 -8.43872959 4.03949081 -8.43834114 3.22881317 C-8.13264264 -1.12271881 -3.39218384 0.0920237 0 0 Z " fill="#FAFBFA" transform="translate(563.3125,330.5625)"/>
<path d="M0 0 C6.93 0 13.86 0 21 0 C22.216875 3.073125 23.43375 6.14625 24.6875 9.3125 C27.29018612 15.8587778 30.00142059 22.31179006 32.984375 28.6953125 C34.29362078 31.6662933 35.28621425 34.69395529 36.26953125 37.78515625 C37.63906816 41.93770933 39.3390188 45.95723443 41 50 C41.58083188 51.42443729 42.16155199 52.84892016 42.7421875 54.2734375 C43.36948692 55.80741632 43.99709271 57.3412699 44.625 58.875 C44.92631836 59.61298828 45.22763672 60.35097656 45.53808594 61.11132812 C46.68567134 63.90289039 47.81372646 66.64307586 49.2109375 69.3203125 C50 71 50 71 50 74 C50.66 74 51.32 74 52 74 C52.27328125 72.97777344 52.5465625 71.95554687 52.828125 70.90234375 C53.85511013 67.3124001 55.22601561 63.97507794 56.75 60.5625 C61.51555491 49.69467415 65.62029333 38.59081005 69.140625 27.2578125 C70 25 70 25 72 23 C72.72215129 21.24498964 72.72215129 21.24498964 73.3125 19.1875 C78.67733254 2.32266746 78.67733254 2.32266746 81 0 C82.4887186 -0.08669432 83.981445 -0.10703494 85.47265625 -0.09765625 C86.37177734 -0.09443359 87.27089844 -0.09121094 88.19726562 -0.08789062 C89.61555664 -0.07532227 89.61555664 -0.07532227 91.0625 -0.0625 C92.4865918 -0.05573242 92.4865918 -0.05573242 93.93945312 -0.04882812 C96.29303065 -0.0370011 98.64648477 -0.02052025 101 0 C102.24696389 3.74089167 101.61146714 4.48641162 100.02734375 8.01171875 C99.56054199 9.08341309 99.09374023 10.15510742 98.61279297 11.25927734 C98.22326447 12.15256744 98.22326447 12.15256744 97.8258667 13.06390381 C96.28978412 16.66497361 94.8720047 20.31307537 93.44140625 23.95703125 C93.12722748 24.7543869 92.81304871 25.55174255 92.48934937 26.3732605 C91.51262301 28.85257172 90.53747094 31.33249802 89.5625 33.8125 C88.27270567 37.09006844 86.98224762 40.36737505 85.69140625 43.64453125 C85.37913589 44.43744064 85.06686554 45.23035004 84.74513245 46.04728699 C81.18853623 55.07069842 77.60250703 64.08250656 73.9375 73.0625 C71.90617559 78.1197392 70.12272303 83.25954853 68.34375 88.41015625 C67.33643347 91.10121407 66.27227572 93.67302772 65.08984375 96.28515625 C62.85557918 101.23500024 60.95500456 106.28668855 59.0625 111.375 C56.62432009 117.86871596 54.07140327 124.22211752 51.09765625 130.4921875 C49.03808466 135.19768558 47.53023787 140.10152905 46 145 C45.34 145 44.68 145 44 145 C43.855625 145.804375 43.71125 146.60875 43.5625 147.4375 C43 150 43 150 42 151 C40.5112814 151.08669432 39.018555 151.10703494 37.52734375 151.09765625 C36.62822266 151.09443359 35.72910156 151.09121094 34.80273438 151.08789062 C33.85720703 151.07951172 32.91167969 151.07113281 31.9375 151.0625 C30.98810547 151.05798828 30.03871094 151.05347656 29.06054688 151.04882812 C26.70696935 151.0370011 24.35351523 151.02052025 22 151 C23.09651274 145.31103389 24.56108829 140.28920612 27 135 C27.63897577 133.51771109 28.27277123 132.03318213 28.90234375 130.546875 C29.23371338 129.76803955 29.56508301 128.9892041 29.90649414 128.18676758 C31.30733216 124.87590698 32.69177183 121.55839864 34.06933594 118.23779297 C34.85271726 116.35414314 35.64768377 114.4753174 36.4453125 112.59765625 C39.69264505 104.5020335 39.06553421 99.35884954 35.8125 91.4375 C35.36519531 90.41527344 34.91789063 89.39304687 34.45703125 88.33984375 C32.89354268 84.75597586 31.4375398 81.1355039 30 77.5 C28.18766237 72.94027864 26.3408202 68.39762291 24.4375 63.875 C22.70772287 59.75779885 21.07935535 55.61467349 19.5 51.4375 C17.98239398 47.44728355 16.37366361 43.55285876 14.5625 39.6875 C12.17380247 34.5506771 10.19113378 29.30954756 8.24169922 23.99536133 C6.32863952 18.79984826 4.22215815 13.71218895 1.98046875 8.6484375 C1 6 1 6 0 0 Z " fill="#FAFBFB" transform="translate(908,332)"/>
<path d="M0 0 C13.53 0 27.06 0 41 0 C41 8.25 41 16.5 41 25 C27.47 25 13.94 25 0 25 C0 16.75 0 8.5 0 0 Z " fill="#2F333E" transform="translate(1049,396)"/>
<path d="M0 0 C13.53 0 27.06 0 41 0 C41 8.25 41 16.5 41 25 C27.47 25 13.94 25 0 25 C0 16.75 0 8.5 0 0 Z " fill="#2F333D" transform="translate(459,396)"/>
<path d="M0 0 C6.27 0 12.54 0 19 0 C19 2.31 19 4.62 19 7 C15.7 7 12.4 7 9 7 C9 31.42 9 55.84 9 81 C12.3 81 15.6 81 19 81 C19 83.31 19 85.62 19 88 C12.73 88 6.46 88 0 88 C0 58.96 0 29.92 0 0 Z " fill="#90E769" transform="translate(1639,312)"/>
<path d="M0 0 C3.33400532 0.59557755 6.35174073 1.41247946 9.49902344 2.65820312 C10.35631042 2.99525269 11.21359741 3.33230225 12.09686279 3.67956543 C13.00849182 4.04312134 13.92012085 4.40667725 14.859375 4.78125 C15.80435852 5.15479614 16.74934204 5.52834229 17.72296143 5.91320801 C19.71405752 6.70134935 21.70433698 7.49155651 23.69384766 8.28369141 C26.75088265 9.50035128 29.81075614 10.70964357 32.87109375 11.91796875 C34.80485933 12.68446247 36.73845898 13.45137496 38.671875 14.21875 C39.59160095 14.58230591 40.5113269 14.94586182 41.45892334 15.32043457 C42.30360168 15.65748413 43.14828003 15.99453369 44.01855469 16.34179688 C44.76514343 16.63856323 45.51173218 16.93532959 46.28094482 17.24108887 C48 18 48 18 49 19 C49.1424478 22.33327842 49.04222103 25.66453893 49 29 C40.26104933 33.12285021 31.34948303 36.7719458 22.38134766 40.35864258 C19.97459087 41.32267772 17.57128166 42.29499428 15.16796875 43.26757812 C13.63301474 43.8833169 12.09786562 44.49856956 10.5625 45.11328125 C9.84690918 45.40382889 9.13131836 45.69437653 8.39404297 45.99372864 C5.44144588 47.16657128 3.20807947 48 0 48 C0 45.03 0 42.06 0 39 C7.98364526 35.58334321 16.04584451 32.37023553 24.125 29.1875 C25.1569751 28.77830322 26.1889502 28.36910645 27.25219727 27.94750977 C28.22342529 27.56651123 29.19465332 27.1855127 30.1953125 26.79296875 C31.07203613 26.4477417 31.94875977 26.10251465 32.85205078 25.74682617 C35 25 35 25 37 25 C37 24.34 37 23.68 37 23 C36.43547119 22.84289551 35.87094238 22.68579102 35.28930664 22.52392578 C27.84315528 20.37815954 20.65763727 17.67901526 13.4375 14.875 C12.25091797 14.41996094 11.06433594 13.96492188 9.84179688 13.49609375 C1.13194444 10.13194444 1.13194444 10.13194444 0 9 C-0.07179964 7.48071962 -0.08392007 5.95832518 -0.0625 4.4375 C-0.05347656 3.61121094 -0.04445313 2.78492188 -0.03515625 1.93359375 C-0.02355469 1.29550781 -0.01195312 0.65742188 0 0 Z " fill="#F6F6F6" transform="translate(1236,459)"/>
<path d="M0 0 C0 2.97 0 5.94 0 9 C-7.96515426 12.40874344 -16.00672973 15.62515433 -24.0625 18.8125 C-25.08609619 19.22169678 -26.10969238 19.63089355 -27.16430664 20.05249023 C-28.13231201 20.43348877 -29.10031738 20.8144873 -30.09765625 21.20703125 C-30.96914307 21.5522583 -31.84062988 21.89748535 -32.73852539 22.25317383 C-35 23 -35 23 -38 23 C-38 23.66 -38 24.32 -38 25 C-36.74183472 25.16435547 -36.74183472 25.16435547 -35.45825195 25.33203125 C-31.67417502 26.06293379 -28.23707981 27.27873217 -24.66796875 28.6875 C-23.6521447 29.08134888 -23.6521447 29.08134888 -22.61579895 29.4831543 C-21.19535968 30.0351993 -19.77599356 30.59001284 -18.35766602 31.14746094 C-16.17909259 32.00330281 -13.99711828 32.84996749 -11.81445312 33.6953125 C-10.4320848 34.2338443 -9.04991597 34.77288852 -7.66796875 35.3125 C-7.0138652 35.56668701 -6.35976166 35.82087402 -5.68583679 36.08276367 C-1.11628161 37.88371839 -1.11628161 37.88371839 0 39 C0.14177857 42.00003445 0.04228771 44.99757235 0 48 C-10.00130463 45.31522355 -19.4369739 41.29772875 -29 37.375 C-30.71988812 36.6740767 -32.43993896 35.97355254 -34.16015625 35.2734375 C-46.58554744 30.20722628 -46.58554744 30.20722628 -49 29 C-49 25.7 -49 22.4 -49 19 C-20.62836452 7.17508474 -20.62836452 7.17508474 -9.3125 2.75 C-8.58434082 2.46310303 -7.85618164 2.17620605 -7.10595703 1.88061523 C-2.24695686 0 -2.24695686 0 0 0 Z " fill="#F7D45B" transform="translate(208,222)"/>
<path d="M0 0 C5.56663461 -0.28792938 9.2172507 -0.22557511 14 3 C16.77144093 6.77479368 17.3979062 9.57802347 17.5546875 14.21875 C17.61269531 15.39824219 17.67070313 16.57773437 17.73046875 17.79296875 C17.82681154 20.26403109 17.91535585 22.73540983 17.99609375 25.20703125 C18.06681451 32.3201945 18.06681451 32.3201945 21.3828125 38.28125 C23.94547167 40.12428761 23.94547167 40.12428761 27 41 C27 43.64 27 46.28 27 49 C26.05125 49.433125 25.1025 49.86625 24.125 50.3125 C20.79958063 51.79302201 20.79958063 51.79302201 19 55 C17.77433941 61.26273024 17.73359692 67.60941994 17.65820312 73.97265625 C17.45860814 79.75626902 16.33466624 83.2370782 13 88 C8.9104549 90.61276493 4.70347293 90.15943976 0 90 C0 87.69 0 85.38 0 83 C2.64 82.67 5.28 82.34 8 82 C8.87488492 78.96247328 9.14619452 76.19904043 9.2109375 73.04296875 C9.25347656 71.62081055 9.25347656 71.62081055 9.296875 70.16992188 C9.34864659 68.19354162 9.39300884 66.21695234 9.4296875 64.24023438 C9.61833437 58.43541293 10.19146361 54.12266051 13 49 C15.1875 47.1875 15.1875 47.1875 17 46 C17 45.34 17 44.68 17 44 C16.21625 43.236875 15.4325 42.47375 14.625 41.6875 C10.6754754 37.6439391 9.76614238 34.15353484 9.69140625 28.5859375 C9.66626953 27.57789063 9.64113281 26.56984375 9.61523438 25.53125 C9.57994866 23.4193344 9.54872807 21.30734715 9.52148438 19.1953125 C9.4818457 17.68710937 9.4818457 17.68710937 9.44140625 16.1484375 C9.42795166 15.23239746 9.41449707 14.31635742 9.40063477 13.37255859 C8.92476766 10.55447418 8.28682039 9.6706113 6 8 C2.89160979 7.2730774 2.89160979 7.2730774 0 7 C0 4.69 0 2.38 0 0 Z " fill="#E1197E" transform="translate(1467,311)"/>
<path d="M0 0 C5.08170423 0.69612387 9.53053887 2.77329391 14.203125 4.78125 C15.08152039 5.15479614 15.95991577 5.52834229 16.8649292 5.91320801 C18.71495348 6.70110893 20.56399519 7.4913205 22.41210938 8.28369141 C25.25156996 9.50067288 28.09424598 10.70988033 30.9375 11.91796875 C32.73456878 12.68444166 34.53145045 13.45135344 36.328125 14.21875 C37.18222961 14.58230591 38.03633423 14.94586182 38.9163208 15.32043457 C39.70093689 15.65748413 40.48555298 15.99453369 41.29394531 16.34179688 C41.98723938 16.63856323 42.68053345 16.93532959 43.39483643 17.24108887 C45 18 45 18 46 19 C46.14115161 21.67058851 46.04247107 24.32432238 46 27 C38.27319976 31.05590532 30.32129174 34.51548867 22.27563477 37.87646484 C20.17142592 38.75672431 18.07101779 39.6456514 15.97070312 40.53515625 C14.62001107 41.10208551 13.26910709 41.66851019 11.91796875 42.234375 C10.70906982 42.74194336 9.5001709 43.24951172 8.25463867 43.77246094 C5.4708017 44.8224296 2.92900417 45.53656092 0 46 C0 43.36 0 40.72 0 38 C6.63358545 34.56689894 13.41966367 31.62236305 20.3125 28.75 C21.39595703 28.29109375 22.47941406 27.8321875 23.59570312 27.359375 C24.63275391 26.92625 25.66980469 26.493125 26.73828125 26.046875 C27.67712158 25.65338867 28.61596191 25.25990234 29.58325195 24.85449219 C32 24 32 24 35 24 C35 23.34 35 22.68 35 22 C33.97277832 21.83564453 33.97277832 21.83564453 32.92480469 21.66796875 C29.49555862 20.88479536 26.45210208 19.66203423 23.203125 18.3125 C22.25176666 17.91865112 22.25176666 17.91865112 21.28118896 17.5168457 C19.94908831 16.96424994 18.61790366 16.40944136 17.28759766 15.85253906 C15.24473717 14.99779801 13.1988207 14.15072803 11.15234375 13.3046875 C1.14478828 9.14478828 1.14478828 9.14478828 0 8 C-0.14115161 5.32941149 -0.04247107 2.67567762 0 0 Z " fill="#F6F6F6" transform="translate(1555,324)"/>
<path d="M0 0 C1.23556641 0.01740234 1.23556641 0.01740234 2.49609375 0.03515625 C3.32238281 0.04417969 4.14867187 0.05320312 5 0.0625 C5.63808594 0.07410156 6.27617188 0.08570313 6.93359375 0.09765625 C5.90483709 6.33787754 4.31186175 12.02887744 2.06640625 17.93359375 C0.72524715 21.67958985 -0.39980764 25.46383913 -1.50390625 29.28515625 C-5.59237523 43.38834094 -10.09045717 57.2812753 -15.06640625 71.09765625 C-18.03640625 71.09765625 -21.00640625 71.09765625 -24.06640625 71.09765625 C-23.45975737 64.12119416 -21.09026765 57.81096537 -18.81640625 51.22265625 C-16.21079383 43.54878181 -13.61113441 35.88950387 -11.37890625 28.09765625 C-9.60304742 21.90535408 -7.74471856 15.7444026 -5.81640625 9.59765625 C-5.55770752 8.76492188 -5.29900879 7.9321875 -5.0324707 7.07421875 C-2.84406434 0.13440758 -2.84406434 0.13440758 0 0 Z " fill="#F1F1F2" transform="translate(1218.06640625,437.90234375)"/>
<path d="M0 0 C2.97 0 5.94 0 9 0 C7.94088022 7.51975046 6.01676795 14.28268989 3.38427734 21.36889648 C0.99063777 27.83358972 -1.00802919 34.40188908 -3 41 C-4.3724054 45.52162608 -5.74823249 50.04220057 -7.125 54.5625 C-7.47175781 55.71041016 -7.81851563 56.85832031 -8.17578125 58.04101562 C-8.51222656 59.14251953 -8.84867188 60.24402344 -9.1953125 61.37890625 C-9.49453613 62.3644751 -9.79375977 63.35004395 -10.10205078 64.36547852 C-11 67 -11 67 -13 71 C-15.97 71 -18.94 71 -22 71 C-21.04778167 66.15955683 -19.93345428 61.61582245 -18.1875 57 C-16.42587611 52.3219099 -14.95014583 47.61085599 -13.5625 42.8125 C-9.39445511 28.42206194 -4.78180198 14.19751515 0 0 Z " fill="#F3D15B" transform="translate(241,201)"/>
<path d="M0 0 C1.134375 0.020625 2.26875 0.04125 3.4375 0.0625 C2.86783907 5.45636031 1.92300363 10.39557847 0.3984375 15.62109375 C0.19662369 16.31973038 -0.00519012 17.018367 -0.21311951 17.73817444 C-0.86581814 19.99373263 -1.52664484 22.24681967 -2.1875 24.5 C-2.86879205 26.84727001 -3.54801595 29.19513277 -4.22724915 31.54299927 C-4.68232241 33.11521105 -5.13812225 34.68721271 -5.59465027 36.25900269 C-7.95352225 44.38461611 -10.22756709 52.53307841 -12.49267578 60.68530273 C-12.88495361 62.09404663 -12.88495361 62.09404663 -13.28515625 63.53125 C-13.62172241 64.74458008 -13.62172241 64.74458008 -13.96508789 65.98242188 C-14.45509964 67.68855186 -15.00116311 69.37848933 -15.5625 71.0625 C-18.2025 71.0625 -20.8425 71.0625 -23.5625 71.0625 C-20.5362788 57.29117771 -16.76590998 43.7493121 -12.90698242 30.19091797 C-11.86163311 26.51550244 -10.82403202 22.837957 -9.78710938 19.16015625 C-9.12545368 16.82539222 -8.46336101 14.49075196 -7.80078125 12.15625 C-7.49038406 11.05543091 -7.17998688 9.95461182 -6.86018372 8.82043457 C-6.57285873 7.81428101 -6.28553375 6.80812744 -5.98950195 5.77148438 C-5.737314 4.88344116 -5.48512604 3.99539795 -5.22529602 3.08044434 C-4.09700773 -0.35473467 -3.92862926 0.06892332 0 0 Z " fill="#EBECED" transform="translate(1546.5625,310.9375)"/>
<path d="M0 0 C1.32 0 2.64 0 4 0 C4.33 3.3 4.66 6.6 5 10 C5.66 9.67 6.32 9.34 7 9 C10.3125 8.5625 10.3125 8.5625 14 9 C17.67081686 12.20220194 18.7912546 13.70113976 19.5625 18.5 C18.90105384 22.61566498 17.61724676 24.78452541 15 28 C11.73718826 30.17520782 10.7659092 30.28244319 7 30 C6.01 29.67 5.02 29.34 4 29 C2.68 29 1.36 29 0 29 C0 19.43 0 9.86 0 0 Z " fill="#E0EBED" transform="translate(1202,694)"/>
<path d="M0 0 C0.99 0 1.98 0 3 0 C3 9.24 3 18.48 3 28 C1.68 27.67 0.36 27.34 -1 27 C-1.99 27.66 -2.98 28.32 -4 29 C-10.08056042 28.67425569 -10.08056042 28.67425569 -12.875 26.625 C-15.49315878 22.84321509 -15.64804666 18.43263917 -15 14 C-13.20636089 11.1899654 -11.98119065 9.49059532 -9 8 C-3.46153846 7.76923077 -3.46153846 7.76923077 -1 9 C-0.67 6.03 -0.34 3.06 0 0 Z " fill="#E6ECED" transform="translate(1336,695)"/>
<path d="M0 0 C0.99 0 1.98 0 3 0 C3.99 0 4.98 0 6 0 C5.68839539 2.20845985 5.37567654 4.41676251 5.0625 6.625 C4.80146484 8.46964844 4.80146484 8.46964844 4.53515625 10.3515625 C4.06225699 13.57556184 3.54848998 16.78812176 3 20 C2.236875 19.79375 1.47375 19.5875 0.6875 19.375 C-2.21885944 18.66608797 -2.21885944 18.66608797 -5 21 C-8.5625 20.8125 -8.5625 20.8125 -12 20 C-14.82792793 15.7581081 -14.78122286 11.98126257 -14 7 C-10.57281525 0.62976812 -6.82814013 -0.11979193 0 0 Z " fill="#EBECEA" transform="translate(1407,751)"/>
<path d="M0 0 C0.99 0 1.98 0 3 0 C3.99 0 4.98 0 6 0 C5.68839539 2.20845985 5.37567654 4.41676251 5.0625 6.625 C4.80146484 8.46964844 4.80146484 8.46964844 4.53515625 10.3515625 C4.06225699 13.57556184 3.54848998 16.78812176 3 20 C2.236875 19.79375 1.47375 19.5875 0.6875 19.375 C-2.21885944 18.66608797 -2.21885944 18.66608797 -5 21 C-8.5625 20.8125 -8.5625 20.8125 -12 20 C-14.82792793 15.7581081 -14.78122286 11.98126257 -14 7 C-10.57281525 0.62976812 -6.82814013 -0.11979193 0 0 Z " fill="#EBECEA" transform="translate(1335,751)"/>
<path d="M0 0 C2.82275936 1.25455972 4.46288541 2.28384722 6.3125 4.75 C7.32815881 8.0739743 7.41796486 10.53686262 7 14 C5.09932 17.2073975 3.63156918 19.34000179 0.09765625 20.76953125 C-2.95318886 21.39609637 -5.03963477 21.52985668 -7.8125 20 C-10.00455326 18.22949545 -11.73303323 16.53393354 -13 14 C-13.5811138 6.91041162 -13.5811138 6.91041162 -11.125 3.0625 C-7.50882222 -0.44731961 -4.97588405 -0.33734807 0 0 Z " fill="#E3E7E3" transform="translate(1310,703)"/>
<path d="M0 0 C2.82275936 1.25455972 4.46288541 2.28384722 6.3125 4.75 C7.32815881 8.0739743 7.41796486 10.53686262 7 14 C5.09932 17.2073975 3.63156918 19.34000179 0.09765625 20.76953125 C-2.95318886 21.39609637 -5.03963477 21.52985668 -7.8125 20 C-10.00455326 18.22949545 -11.73303323 16.53393354 -13 14 C-13.5811138 6.91041162 -13.5811138 6.91041162 -11.125 3.0625 C-7.50882222 -0.44731961 -4.97588405 -0.33734807 0 0 Z " fill="#E3E7E3" transform="translate(1118,703)"/>
<path d="M0 0 C2.9375 1.375 2.9375 1.375 5 4 C5.95001108 8.20307931 6.0428997 12.1076111 3.92578125 15.94921875 C1.33503792 18.88066257 -1.23076052 20.38770618 -5.0625 21.1875 C-9 21 -9 21 -12 19.125 C-14.30336806 15.52598741 -14.72429811 13.42123654 -14.5 9.22265625 C-13.65103077 5.44872271 -11.77779315 3.64551728 -9 1 C-5.89951072 -0.55024464 -3.42105782 -0.28992015 0 0 Z " fill="#E6EEF1" transform="translate(1119,751)"/>
<path d="M0 0 C2.734375 2.0390625 2.734375 2.0390625 5 5 C5.36771245 7.8387401 5.48630804 10.01820151 5.3125 12.8125 C5.28994141 13.50537109 5.26738281 14.19824219 5.24414062 14.91210938 C5.18562661 16.60901573 5.0959548 18.30479861 5 20 C4.21367188 19.814375 3.42734375 19.62875 2.6171875 19.4375 C0.04090136 18.73348841 0.04090136 18.73348841 -1.875 20 C-5.10873745 21.5217588 -7.59303115 20.75710419 -11 20 C-13 18 -13 18 -13.5 15.125 C-13 12 -13 12 -10.5 9.625 C-6.20094219 7.62900887 -3.67771365 7.67739906 1 8 C0.34 6.68 -0.32 5.36 -1 4 C-4.5219721 3.91995518 -7.61981469 3.95994298 -11 5 C-11.33 4.01 -11.66 3.02 -12 2 C-8.42043247 -0.38637835 -4.13835438 -1.10201988 0 0 Z " fill="#DDE6EA" transform="translate(1503,703)"/>
<path d="M0 0 C2.734375 2.0390625 2.734375 2.0390625 5 5 C5.36771245 7.8387401 5.48630804 10.01820151 5.3125 12.8125 C5.28994141 13.50537109 5.26738281 14.19824219 5.24414062 14.91210938 C5.18562661 16.60901573 5.0959548 18.30479861 5 20 C4.21367188 19.814375 3.42734375 19.62875 2.6171875 19.4375 C0.04090136 18.73348841 0.04090136 18.73348841 -1.875 20 C-5.10873745 21.5217588 -7.59303115 20.75710419 -11 20 C-13 18 -13 18 -13.5 15.125 C-13 12 -13 12 -10.5 9.625 C-6.20094219 7.62900887 -3.67771365 7.67739906 1 8 C0.34 6.68 -0.32 5.36 -1 4 C-4.5219721 3.91995518 -7.61981469 3.95994298 -11 5 C-11.33 4.01 -11.66 3.02 -12 2 C-8.42043247 -0.38637835 -4.13835438 -1.10201988 0 0 Z " fill="#DDE6EA" transform="translate(1191,703)"/>
<path d="M0 0 C2.4375 1.5625 2.4375 1.5625 4 4 C4 6.31 4 8.62 4 11 C-0.95 11 -5.9 11 -11 11 C-10.34 12.65 -9.68 14.3 -9 16 C-5.19060412 17.48143173 -1.92803595 16.82214706 2 16 C1 19 1 19 -0.6875 20.1875 C-4.36502157 21.47960217 -7.55259033 21.48246989 -11.25 20.25 C-13.49752294 18.64462647 -14.14455592 17.63761924 -15 15 C-15.47584595 10.71738649 -15.27767535 8.52559976 -13.25 4.6875 C-9.28806916 -0.04480628 -6.17357438 -0.6614544 0 0 Z " fill="#F2ECE2" transform="translate(1528,751)"/>
<path d="M0 0 C2.4375 1.5625 2.4375 1.5625 4 4 C4 6.31 4 8.62 4 11 C-0.95 11 -5.9 11 -11 11 C-10.34 12.65 -9.68 14.3 -9 16 C-5.19060412 17.48143173 -1.92803595 16.82214706 2 16 C1 19 1 19 -0.6875 20.1875 C-4.36502157 21.47960217 -7.55259033 21.48246989 -11.25 20.25 C-13.49752294 18.64462647 -14.14455592 17.63761924 -15 15 C-15.47584595 10.71738649 -15.27767535 8.52559976 -13.25 4.6875 C-9.28806916 -0.04480628 -6.17357438 -0.6614544 0 0 Z " fill="#F2ECE2" transform="translate(1288,751)"/>
<path d="M0 0 C2.4375 1.5625 2.4375 1.5625 4 4 C4 6.31 4 8.62 4 11 C-0.95 11 -5.9 11 -11 11 C-10.34 12.65 -9.68 14.3 -9 16 C-5.19060412 17.48143173 -1.92803595 16.82214706 2 16 C1 19 1 19 -0.6875 20.1875 C-4.36502157 21.47960217 -7.55259033 21.48246989 -11.25 20.25 C-13.49752294 18.64462647 -14.14455592 17.63761924 -15 15 C-15.47584595 10.71738649 -15.27767535 8.52559976 -13.25 4.6875 C-9.28806916 -0.04480628 -6.17357438 -0.6614544 0 0 Z " fill="#F2ECE2" transform="translate(1168,751)"/>
<path d="M0 0 C2.9375 1.5625 2.9375 1.5625 5 4 C5 6.31 5 8.62 5 11 C0.05 11 -4.9 11 -10 11 C-7.63763049 16.26720863 -7.63763049 16.26720863 -3.5625 16.875 C-0.66780418 16.97656827 1.31485626 16.96665175 4 16 C3.67 17.32 3.34 18.64 3 20 C-1.80313765 20.98197481 -4.92863309 21.52594376 -9.4375 19.3125 C-12.8413098 16.24076921 -13.75480601 14.61127477 -14.4375 10.125 C-13.82244681 5.7317629 -12.08098355 4.15434031 -9 1 C-5.89951072 -0.55024464 -3.42105782 -0.28992015 0 0 Z " fill="#E5EAEB" transform="translate(1551,703)"/>
<path d="M0 0 C2.9375 1.5625 2.9375 1.5625 5 4 C5 6.31 5 8.62 5 11 C0.05 11 -4.9 11 -10 11 C-7.63763049 16.26720863 -7.63763049 16.26720863 -3.5625 16.875 C-0.66780418 16.97656827 1.31485626 16.96665175 4 16 C3.67 17.32 3.34 18.64 3 20 C-1.80313765 20.98197481 -4.92863309 21.52594376 -9.4375 19.3125 C-12.8413098 16.24076921 -13.75480601 14.61127477 -14.4375 10.125 C-13.82244681 5.7317629 -12.08098355 4.15434031 -9 1 C-5.89951072 -0.55024464 -3.42105782 -0.28992015 0 0 Z " fill="#E5EAEB" transform="translate(1479,703)"/>
<path d="M0 0 C2.9375 1.5625 2.9375 1.5625 5 4 C5 6.31 5 8.62 5 11 C0.05 11 -4.9 11 -10 11 C-7.63763049 16.26720863 -7.63763049 16.26720863 -3.5625 16.875 C-0.66780418 16.97656827 1.31485626 16.96665175 4 16 C3.67 17.32 3.34 18.64 3 20 C-1.80313765 20.98197481 -4.92863309 21.52594376 -9.4375 19.3125 C-12.8413098 16.24076921 -13.75480601 14.61127477 -14.4375 10.125 C-13.82244681 5.7317629 -12.08098355 4.15434031 -9 1 C-5.89951072 -0.55024464 -3.42105782 -0.28992015 0 0 Z " fill="#E5EAEB" transform="translate(1359,703)"/>
<path d="M0 0 C0.99 0.33 1.98 0.66 3 1 C5.00109278 0.67329097 7.00116131 0.34022786 9 0 C9.66 0.33 10.32 0.66 11 1 C13.33414529 0.67240066 15.66752239 0.33926947 18 0 C18.33 0.33 18.66 0.66 19 1 C18.48835292 7.44675319 17.35842104 13.68268273 16 20 C14.68 19.67 13.36 19.34 12 19 C12.99 13.72 13.98 8.44 15 3 C13.02 3.99 13.02 3.99 11 5 C10.21139351 7.61887976 9.66963421 9.94921481 9.25 12.625 C9.12496094 13.33140625 8.99992187 14.0378125 8.87109375 14.765625 C8.5650475 16.50773442 8.28044594 18.25358664 8 20 C6.68 20 5.36 20 4 20 C4.51482919 14.147205 5.45357192 8.6702363 7 3 C4.97133643 3.48905021 4.97133643 3.48905021 3 5 C1.85472827 8.32038533 1.85472827 8.32038533 1.25 12.125 C1.00765625 13.40632812 0.7653125 14.68765625 0.515625 16.0078125 C0.26039062 17.48894531 0.26039062 17.48894531 0 19 C-1.32 19.33 -2.64 19.66 -4 20 C-2.28571429 2.28571429 -2.28571429 2.28571429 0 0 Z " fill="#E7EDE9" transform="translate(1491,751)"/>
<path d="M0 0 C2.375 1 2.375 1 4 2 C3.67 3.32 3.34 4.64 3 6 C2.46375 5.649375 1.9275 5.29875 1.375 4.9375 C-1.84367331 3.66697106 -3.70954769 4.01986527 -7 5 C-9.30864754 6.84691803 -9.90788811 8.20462113 -10.24609375 11.125 C-10.36315454 15.31164478 -10.25756363 18.36237096 -8 22 C-5.03325429 23.48337286 -2.28247334 23.05659437 1 23 C2.32 23 3.64 23 5 23 C5 23.66 5 24.32 5 25 C2.34164571 27.03285917 0.38286079 27.94297818 -2.9375 28.4375 C-7.76919577 27.74725775 -10.68914028 25.48564101 -13.875 21.875 C-15.56484251 17.55651358 -15.65960983 13.5732948 -15 9 C-11.72997955 2.33884724 -7.49906201 -0.79777255 0 0 Z " fill="#E1EAEB" transform="translate(1432,696)"/>
<path d="M0 0 C2.375 1 2.375 1 4 2 C3.67 3.32 3.34 4.64 3 6 C2.46375 5.649375 1.9275 5.29875 1.375 4.9375 C-1.84367331 3.66697106 -3.70954769 4.01986527 -7 5 C-9.30864754 6.84691803 -9.90788811 8.20462113 -10.24609375 11.125 C-10.36315454 15.31164478 -10.25756363 18.36237096 -8 22 C-5.03325429 23.48337286 -2.28247334 23.05659437 1 23 C2.32 23 3.64 23 5 23 C5 23.66 5 24.32 5 25 C2.34164571 27.03285917 0.38286079 27.94297818 -2.9375 28.4375 C-7.76919577 27.74725775 -10.68914028 25.48564101 -13.875 21.875 C-15.56484251 17.55651358 -15.65960983 13.5732948 -15 9 C-11.72997955 2.33884724 -7.49906201 -0.79777255 0 0 Z " fill="#E1EAEB" transform="translate(1288,696)"/>
<path d="M0 0 C2.375 1 2.375 1 4 2 C3.67 3.32 3.34 4.64 3 6 C2.46375 5.649375 1.9275 5.29875 1.375 4.9375 C-1.84367331 3.66697106 -3.70954769 4.01986527 -7 5 C-9.30864754 6.84691803 -9.90788811 8.20462113 -10.24609375 11.125 C-10.36315454 15.31164478 -10.25756363 18.36237096 -8 22 C-5.03325429 23.48337286 -2.28247334 23.05659437 1 23 C2.32 23 3.64 23 5 23 C5 23.66 5 24.32 5 25 C2.34164571 27.03285917 0.38286079 27.94297818 -2.9375 28.4375 C-7.76919577 27.74725775 -10.68914028 25.48564101 -13.875 21.875 C-15.56484251 17.55651358 -15.65960983 13.5732948 -15 9 C-11.72997955 2.33884724 -7.49906201 -0.79777255 0 0 Z " fill="#E1EAEB" transform="translate(1096,696)"/>
<path d="M0 0 C1.32 0 2.64 0 4 0 C4 1.98 4 3.96 4 6 C6.97 6 9.94 6 13 6 C13 6.99 13 7.98 13 9 C10.03 9 7.06 9 4 9 C4.33 13.29 4.66 17.58 5 22 C7.97 22.33 10.94 22.66 14 23 C14 23.99 14 24.98 14 26 C9.39962528 27.01228289 6.20039376 27.63694363 1.9375 25.375 C-1.07177768 20.13303243 -0.38915332 14.90648257 0 9 C-1.65 9 -3.3 9 -5 9 C-5 8.01 -5 7.02 -5 6 C-3.35 6 -1.7 6 0 6 C0 4.02 0 2.04 0 0 Z " fill="#E5E5DA" transform="translate(1519,697)"/>
<path d="M0 0 C0.99 0 1.98 0 3 0 C3.33 0.66 3.66 1.32 4 2 C4.99 1.34 5.98 0.68 7 0 C10.5625 -0.25 10.5625 -0.25 14 0 C16 2 16 2 16.01171875 4.86328125 C15.90472656 6.00152344 15.79773437 7.13976562 15.6875 8.3125 C15.53861328 10.00826172 15.53861328 10.00826172 15.38671875 11.73828125 C15.05455237 14.53988656 14.60445849 17.24635577 14 20 C12.68 20 11.36 20 10 20 C10.66 14.39 11.32 8.78 12 3 C5.38224719 4.22450569 5.38224719 4.22450569 3.1875 7 C1.51469976 11.22602165 0.73829925 15.5267751 0 20 C-1.32 20 -2.64 20 -4 20 C-2.68 13.4 -1.36 6.8 0 0 Z " fill="#ECEEEA" transform="translate(1252,751)"/>
<path d="M0 0 C0.99 0 1.98 0 3 0 C3.33 0.66 3.66 1.32 4 2 C4.99 1.34 5.98 0.68 7 0 C10.5625 -0.25 10.5625 -0.25 14 0 C16 2 16 2 16.01171875 4.86328125 C15.90472656 6.00152344 15.79773437 7.13976562 15.6875 8.3125 C15.53861328 10.00826172 15.53861328 10.00826172 15.38671875 11.73828125 C15.05455237 14.53988656 14.60445849 17.24635577 14 20 C12.68 20 11.36 20 10 20 C10.66 14.39 11.32 8.78 12 3 C5.38224719 4.22450569 5.38224719 4.22450569 3.1875 7 C1.51469976 11.22602165 0.73829925 15.5267751 0 20 C-1.32 20 -2.64 20 -4 20 C-2.68 13.4 -1.36 6.8 0 0 Z " fill="#ECEEEA" transform="translate(1132,751)"/>
<path d="M0 0 C0.99 0 1.98 0 3 0 C3 1.65 3 3.3 3 5 C5.97 5 8.94 5 12 5 C12 5.99 12 6.98 12 8 C8.37 8 4.74 8 1 8 C1 12.62 1 17.24 1 22 C3.64 22 6.28 22 9 22 C8.67 22.99 8.34 23.98 8 25 C0.8358209 26.31343284 0.8358209 26.31343284 -2.5 25.0625 C-4.81253999 21.88275752 -4.47700554 18.73427194 -4 15 C-3.46572967 12.59125578 -2.78216925 10.34650774 -2 8 C-3.65 8 -5.3 8 -7 8 C-7 7.01 -7 6.02 -7 5 C-5.02 5 -3.04 5 -1 5 C-0.67 3.35 -0.34 1.7 0 0 Z " fill="#ECF1EF" transform="translate(1449,746)"/>
<path d="M0 0 C0.99 0 1.98 0 3 0 C3 1.65 3 3.3 3 5 C5.97 5 8.94 5 12 5 C12 5.99 12 6.98 12 8 C8.37 8 4.74 8 1 8 C1 12.62 1 17.24 1 22 C3.64 22 6.28 22 9 22 C8.67 22.99 8.34 23.98 8 25 C0.8358209 26.31343284 0.8358209 26.31343284 -2.5 25.0625 C-4.81253999 21.88275752 -4.47700554 18.73427194 -4 15 C-3.46572967 12.59125578 -2.78216925 10.34650774 -2 8 C-3.65 8 -5.3 8 -7 8 C-7 7.01 -7 6.02 -7 5 C-5.02 5 -3.04 5 -1 5 C-0.67 3.35 -0.34 1.7 0 0 Z " fill="#ECF1EF" transform="translate(1353,746)"/>
<path d="M0 0 C2.375 0.5 2.375 0.5 4.25 1.5625 C6.07691247 4.70884925 5.21660654 7.07345909 4.375 10.5 C3.1875 12.875 3.1875 12.875 1.375 14.5 C-1.625 15.4375 -1.625 15.4375 -4.625 15.5 C-6.5 14.5 -6.5 14.5 -7.625 12.5 C-8.125 9.125 -8.125 9.125 -7.625 5.5 C-5.28581464 2.35880823 -3.89270274 0.74146719 0 0 Z " fill="#393B45" transform="translate(1115.625,753.5)"/>
<path d="M0 0 C2.32579101 3.48868651 2.41865457 4.89718519 2 9 C0.9375 11.375 0.9375 11.375 -1 13 C-4.5625 13.4375 -4.5625 13.4375 -8 13 C-10.54440716 9.18338925 -10.57622479 6.4703891 -10 2 C-7.76411593 -2.34024556 -4.18639275 -1.06562725 0 0 Z " fill="#353946" transform="translate(1311,707)"/>
<path d="M0 0 C2.32579101 3.48868651 2.41865457 4.89718519 2 9 C0.9375 11.375 0.9375 11.375 -1 13 C-4.5625 13.4375 -4.5625 13.4375 -8 13 C-10.54440716 9.18338925 -10.57622479 6.4703891 -10 2 C-7.76411593 -2.34024556 -4.18639275 -1.06562725 0 0 Z " fill="#353946" transform="translate(1119,707)"/>
<path d="M0 0 C1 1 1 1 1.1875 4.8125 C1.13571887 8.02868383 1.02201211 10.37138425 -1 13 C-3.25482318 14.57837622 -4.37737984 15.07324943 -7.125 14.75 C-9 14 -9 14 -11 12 C-10.86057655 7.67787311 -10.73323437 5.08627313 -8.3125 1.5 C-5.35359458 -0.41929 -3.46203587 -0.38467065 0 0 Z " fill="#383A44" transform="translate(1407,754)"/>
<path d="M0 0 C1 1 1 1 1.1875 4.8125 C1.13571887 8.02868383 1.02201211 10.37138425 -1 13 C-3.25482318 14.57837622 -4.37737984 15.07324943 -7.125 14.75 C-9 14 -9 14 -11 12 C-10.86057655 7.67787311 -10.73323437 5.08627313 -8.3125 1.5 C-5.35359458 -0.41929 -3.46203587 -0.38467065 0 0 Z " fill="#383A44" transform="translate(1335,754)"/>
<path d="M0 0 C3.3 0 6.6 0 10 0 C9.566875 2.165625 9.566875 2.165625 9.125 4.375 C8.94453125 5.28507813 8.7640625 6.19515625 8.578125 7.1328125 C8.20481018 8.9842522 7.82018563 10.8334639 7.421875 12.6796875 C6.45965307 17.20213058 5.75496526 21.34433988 6 26 C7.98 26 9.96 26 12 26 C12 26.99 12 27.98 12 29 C5.375 30.25 5.375 30.25 2 28 C0.43798122 19.73048883 3.04020234 10.99084164 5 3 C3.02 3 1.04 3 -1 3 C-0.67 2.01 -0.34 1.02 0 0 Z " fill="#CAE4EF" transform="translate(1205,742)"/>
<path d="M0 0 C2.8125 0.8125 2.8125 0.8125 3.8125 1.8125 C3.9370486 3.45480364 3.98818524 5.10302276 4 6.75 C4.01417969 7.64589844 4.02835938 8.54179688 4.04296875 9.46484375 C3.8125 11.8125 3.8125 11.8125 1.8125 13.8125 C-1.6875 14.0625 -1.6875 14.0625 -5.1875 13.8125 C-7.1875 11.8125 -7.1875 11.8125 -7.5625 7.9375 C-7.47405777 4.90282607 -7.24403615 3.90165315 -5.5625 1.25 C-3.1875 -0.1875 -3.1875 -0.1875 0 0 Z " fill="#353D4A" transform="translate(1332.1875,706.1875)"/>
<path d="M0 0 C3.3 0 6.6 0 10 0 C10.33 8.25 10.66 16.5 11 25 C13.31 25.33 15.62 25.66 18 26 C18 26.99 18 27.98 18 29 C11.66341847 30.34043071 11.66341847 30.34043071 8.79003906 28.8659668 C7 27 7 27 6.54589844 24.45629883 C6.5668457 23.46654053 6.58779297 22.47678223 6.609375 21.45703125 C6.62226562 20.38388672 6.63515625 19.31074219 6.6484375 18.20507812 C6.68195313 17.08552734 6.71546875 15.96597656 6.75 14.8125 C6.76804687 13.68134766 6.78609375 12.55019531 6.8046875 11.38476562 C6.85187348 8.58899624 6.91769405 5.79492028 7 3 C4.69 3 2.38 3 0 3 C0 2.01 0 1.02 0 0 Z " fill="#F0F1EC" transform="translate(1154,694)"/>
<path d="M0 0 C3.3 0 6.6 0 10 0 C10.33 8.25 10.66 16.5 11 25 C13.31 25.33 15.62 25.66 18 26 C18 26.99 18 27.98 18 29 C11.66341847 30.34043071 11.66341847 30.34043071 8.79003906 28.8659668 C7 27 7 27 6.54589844 24.45629883 C6.5668457 23.46654053 6.58779297 22.47678223 6.609375 21.45703125 C6.62226562 20.38388672 6.63515625 19.31074219 6.6484375 18.20507812 C6.68195313 17.08552734 6.71546875 15.96597656 6.75 14.8125 C6.76804687 13.68134766 6.78609375 12.55019531 6.8046875 11.38476562 C6.85187348 8.58899624 6.91769405 5.79492028 7 3 C4.69 3 2.38 3 0 3 C0 2.01 0 1.02 0 0 Z " fill="#F0F1EC" transform="translate(1130,694)"/>
<path d="M0 0 C1.8125 1.0625 1.8125 1.0625 3 3 C3.39650104 6.63459282 3.41637627 9.09785142 1.875 12.4375 C0 14 0 14 -3.0625 14.3125 C-6 14 -6 14 -8 13 C-8.08086147 11.20906809 -8.13912702 9.41710372 -8.1875 7.625 C-8.22230469 6.62726562 -8.25710938 5.62953125 -8.29296875 4.6015625 C-8.14794922 3.31378906 -8.14794922 3.31378906 -8 2 C-4.76746204 -0.15502531 -3.74849077 -0.46856135 0 0 Z " fill="#373746" transform="translate(1214,706)"/>
<path d="M0 0 C2.734375 2.0390625 2.734375 2.0390625 5 5 C5.36771245 7.8387401 5.48630804 10.01820151 5.3125 12.8125 C5.28994141 13.50537109 5.26738281 14.19824219 5.24414062 14.91210938 C5.18562661 16.60901573 5.0959548 18.30479861 5 20 C3.68 20 2.36 20 1 20 C-0.125 18.375 -0.125 18.375 -1 16 C-0.125 12.75 -0.125 12.75 1 10 C-0.65 10 -2.3 10 -4 10 C-3.67 9.34 -3.34 8.68 -3 8 C-1.68 8 -0.36 8 1 8 C0.34 6.68 -0.32 5.36 -1 4 C-4.5219721 3.91995518 -7.61981469 3.95994298 -11 5 C-11.33 4.01 -11.66 3.02 -12 2 C-8.42043247 -0.38637835 -4.13835438 -1.10201988 0 0 Z " fill="#F1F0E7" transform="translate(1503,703)"/>
<path d="M0 0 C2.734375 2.0390625 2.734375 2.0390625 5 5 C5.36771245 7.8387401 5.48630804 10.01820151 5.3125 12.8125 C5.28994141 13.50537109 5.26738281 14.19824219 5.24414062 14.91210938 C5.18562661 16.60901573 5.0959548 18.30479861 5 20 C3.68 20 2.36 20 1 20 C-0.125 18.375 -0.125 18.375 -1 16 C-0.125 12.75 -0.125 12.75 1 10 C-0.65 10 -2.3 10 -4 10 C-3.67 9.34 -3.34 8.68 -3 8 C-1.68 8 -0.36 8 1 8 C0.34 6.68 -0.32 5.36 -1 4 C-4.5219721 3.91995518 -7.61981469 3.95994298 -11 5 C-11.33 4.01 -11.66 3.02 -12 2 C-8.42043247 -0.38637835 -4.13835438 -1.10201988 0 0 Z " fill="#F1F0E7" transform="translate(1191,703)"/>
<path d="M0 0 C3.67081686 3.20220194 4.7912546 4.70113976 5.5625 9.5 C4.90105384 13.61566498 3.61724676 15.78452541 1 19 C-2.22791555 21.1519437 -3.28400809 21.20086443 -7 21 C-7.33 20.34 -7.66 19.68 -8 19 C-6.49736177 15.99472353 -4.08347159 16.02782386 -1 15 C0.50662097 11.98675805 0.17770373 9.31713623 0 6 C-1.81685373 3.73650326 -1.81685373 3.73650326 -4.4375 3.875 C-5.7059375 3.936875 -5.7059375 3.936875 -7 4 C-7.99 4 -8.98 4 -10 4 C-9.67 3.01 -9.34 2.02 -9 1 C-5.82121306 -0.58939347 -3.5043228 -0.41576711 0 0 Z " fill="#EAEBE5" transform="translate(1216,703)"/>
<path d="M0 0 C0.33 0.99 0.66 1.98 1 3 C4.96 3 8.92 3 13 3 C13.33 2.01 13.66 1.02 14 0 C14.33 1.65 14.66 3.3 15 5 C10.38 5 5.76 5 1 5 C1.66 6.65 2.32 8.3 3 10 C6.80939588 11.48143173 10.07196405 10.82214706 14 10 C13 13 13 13 11.3125 14.1875 C7.63497843 15.47960217 4.44740967 15.48246989 0.75 14.25 C-1.49752294 12.64462647 -2.14455592 11.63761924 -3 9 C-3.3125 5.375 -3.3125 5.375 -3 2 C-2.01 1.34 -1.02 0.68 0 0 Z " fill="#EAEEED" transform="translate(1516,757)"/>
<path d="M0 0 C0.33 0.99 0.66 1.98 1 3 C4.96 3 8.92 3 13 3 C13.33 2.01 13.66 1.02 14 0 C14.33 1.65 14.66 3.3 15 5 C10.38 5 5.76 5 1 5 C1.66 6.65 2.32 8.3 3 10 C6.80939588 11.48143173 10.07196405 10.82214706 14 10 C13 13 13 13 11.3125 14.1875 C7.63497843 15.47960217 4.44740967 15.48246989 0.75 14.25 C-1.49752294 12.64462647 -2.14455592 11.63761924 -3 9 C-3.3125 5.375 -3.3125 5.375 -3 2 C-2.01 1.34 -1.02 0.68 0 0 Z " fill="#EAEEED" transform="translate(1276,757)"/>
<path d="M0 0 C0.33 0.99 0.66 1.98 1 3 C4.96 3 8.92 3 13 3 C13.33 2.01 13.66 1.02 14 0 C14.33 1.65 14.66 3.3 15 5 C10.38 5 5.76 5 1 5 C1.66 6.65 2.32 8.3 3 10 C6.80939588 11.48143173 10.07196405 10.82214706 14 10 C13 13 13 13 11.3125 14.1875 C7.63497843 15.47960217 4.44740967 15.48246989 0.75 14.25 C-1.49752294 12.64462647 -2.14455592 11.63761924 -3 9 C-3.3125 5.375 -3.3125 5.375 -3 2 C-2.01 1.34 -1.02 0.68 0 0 Z " fill="#EAEEED" transform="translate(1156,757)"/>
<path d="M0 0 C3.63 0 7.26 0 11 0 C10.855625 0.763125 10.71125 1.52625 10.5625 2.3125 C9.81832264 7.19099604 9.41114251 12.08378535 9 17 C10.98 17 12.96 17 15 17 C15 17.99 15 18.98 15 20 C7.5271401 21.3475649 7.5271401 21.3475649 5.22265625 19.828125 C3.56692792 17.35246731 3.84622862 15.9810649 4.25 13.0625 C4.35828125 12.20785156 4.4665625 11.35320313 4.578125 10.47265625 C4.95293917 8.27582874 5.42110362 6.15089949 6 4 C3.03 3.505 3.03 3.505 0 3 C0 2.01 0 1.02 0 0 Z " fill="#DFE1DD" transform="translate(1467,751)"/>
<path d="M0 0 C3.63 0 7.26 0 11 0 C10.855625 0.763125 10.71125 1.52625 10.5625 2.3125 C9.81832264 7.19099604 9.41114251 12.08378535 9 17 C10.98 17 12.96 17 15 17 C15 17.99 15 18.98 15 20 C7.5271401 21.3475649 7.5271401 21.3475649 5.22265625 19.828125 C3.56692792 17.35246731 3.84622862 15.9810649 4.25 13.0625 C4.35828125 12.20785156 4.4665625 11.35320313 4.578125 10.47265625 C4.95293917 8.27582874 5.42110362 6.15089949 6 4 C3.03 3.505 3.03 3.505 0 3 C0 2.01 0 1.02 0 0 Z " fill="#DFE1DD" transform="translate(1227,751)"/>
<path d="M0 0 C0 1.32 0 2.64 0 4 C-1.3303125 3.87625 -1.3303125 3.87625 -2.6875 3.75 C-6.00557175 3.81374432 -6.00557175 3.81374432 -8.8125 5.25 C-12.29252163 9.62488434 -11.90589046 14.55875729 -12 20 C-12.99 20 -13.98 20 -15 20 C-15 13.73 -15 7.46 -15 1 C-14.01 1 -13.02 1 -12 1 C-11.67 1.66 -11.34 2.32 -11 3 C-10.484375 2.505 -9.96875 2.01 -9.4375 1.5 C-6.19319983 -0.49649241 -3.73782666 -0.21564385 0 0 Z " fill="#FEFDF4" transform="translate(1460,703)"/>
<path d="M0 0 C0.99 0 1.98 0 3 0 C3.99 0 4.98 0 6 0 C5.42647107 3.87132028 3.51295648 6.08172796 1 9 C0.67 7.35 0.34 5.7 0 4 C-4.14623785 3.59954372 -4.14623785 3.59954372 -7.75 5.3125 C-8.88171799 6.84031928 -9.94533748 8.41800622 -11 10 C-11.33 9.67 -11.66 9.34 -12 9 C-12.33 11.64 -12.66 14.28 -13 17 C-13.33 17 -13.66 17 -14 17 C-14.86097841 7.31877615 -14.86097841 7.31877615 -11.625 3.4375 C-7.58374095 -0.31509769 -5.44191907 -0.09547226 0 0 Z " fill="#D7E7EC" transform="translate(1407,751)"/>
<path d="M0 0 C0.99 0 1.98 0 3 0 C3.99 0 4.98 0 6 0 C5.42647107 3.87132028 3.51295648 6.08172796 1 9 C0.67 7.35 0.34 5.7 0 4 C-4.14623785 3.59954372 -4.14623785 3.59954372 -7.75 5.3125 C-8.88171799 6.84031928 -9.94533748 8.41800622 -11 10 C-11.33 9.67 -11.66 9.34 -12 9 C-12.33 11.64 -12.66 14.28 -13 17 C-13.33 17 -13.66 17 -14 17 C-14.86097841 7.31877615 -14.86097841 7.31877615 -11.625 3.4375 C-7.58374095 -0.31509769 -5.44191907 -0.09547226 0 0 Z " fill="#D7E7EC" transform="translate(1335,751)"/>
<path d="M0 0 C0.99 0 1.98 0 3 0 C3 9.24 3 18.48 3 28 C2.34 28 1.68 28 1 28 C1 27.01 1 26.02 1 25 C0.01 24.67 -0.98 24.34 -2 24 C-1.67 23.67 -1.34 23.34 -1 23 C-0.95207958 21.20897429 -0.96316117 19.4162879 -1 17.625 C-1.05692225 11.6908551 -0.64981381 5.89473959 0 0 Z " fill="#F6FEFF" transform="translate(1336,695)"/>
<path d="M0 0 C0.53625 0.33 1.0725 0.66 1.625 1 C1.295 2.32 0.965 3.64 0.625 5 C0.08875 4.649375 -0.4475 4.29875 -1 3.9375 C-4.25987691 2.65070648 -6.04611425 2.9597232 -9.375 4 C-11.57642332 6.4390706 -11.57642332 6.4390706 -13.375 9 C-14.365 9.33 -15.355 9.66 -16.375 10 C-16.05531467 6.48346139 -15.75257864 4.46568032 -13.5 1.6875 C-9.44004014 -1.53658577 -4.76359765 -2.00572533 0 0 Z " fill="#ECF1F0" transform="translate(1434.375,697)"/>
<path d="M0 0 C0.53625 0.33 1.0725 0.66 1.625 1 C1.295 2.32 0.965 3.64 0.625 5 C0.08875 4.649375 -0.4475 4.29875 -1 3.9375 C-4.25987691 2.65070648 -6.04611425 2.9597232 -9.375 4 C-11.57642332 6.4390706 -11.57642332 6.4390706 -13.375 9 C-14.365 9.33 -15.355 9.66 -16.375 10 C-16.05531467 6.48346139 -15.75257864 4.46568032 -13.5 1.6875 C-9.44004014 -1.53658577 -4.76359765 -2.00572533 0 0 Z " fill="#ECF1F0" transform="translate(1290.375,697)"/>
<path d="M0 0 C0.53625 0.33 1.0725 0.66 1.625 1 C1.295 2.32 0.965 3.64 0.625 5 C0.08875 4.649375 -0.4475 4.29875 -1 3.9375 C-4.25987691 2.65070648 -6.04611425 2.9597232 -9.375 4 C-11.57642332 6.4390706 -11.57642332 6.4390706 -13.375 9 C-14.365 9.33 -15.355 9.66 -16.375 10 C-16.05531467 6.48346139 -15.75257864 4.46568032 -13.5 1.6875 C-9.44004014 -1.53658577 -4.76359765 -2.00572533 0 0 Z " fill="#ECF1F0" transform="translate(1098.375,697)"/>
<path d="M0 0 C2.9375 2 2.9375 2 5 4 C4.34 5.65 3.68 7.3 3 9 C1 6 1 6 1 4 C-3.70424328 3.53042916 -3.70424328 3.53042916 -7.8125 5.375 C-8.204375 5.91125 -8.59625 6.4475 -9 7 C-9.66 7.66 -10.32 8.32 -11 9 C-11.66 9 -12.32 9 -13 9 C-12.71897086 5.62765029 -12.19628348 4.21360261 -9.875 1.6875 C-6.22304466 -0.45603901 -4.1758776 -0.59655394 0 0 Z " fill="#EFF3F2" transform="translate(1551,703)"/>
<path d="M0 0 C2.9375 2 2.9375 2 5 4 C4.34 5.65 3.68 7.3 3 9 C1 6 1 6 1 4 C-3.70424328 3.53042916 -3.70424328 3.53042916 -7.8125 5.375 C-8.204375 5.91125 -8.59625 6.4475 -9 7 C-9.66 7.66 -10.32 8.32 -11 9 C-11.66 9 -12.32 9 -13 9 C-12.71897086 5.62765029 -12.19628348 4.21360261 -9.875 1.6875 C-6.22304466 -0.45603901 -4.1758776 -0.59655394 0 0 Z " fill="#EFF3F2" transform="translate(1479,703)"/>
<path d="M0 0 C2.9375 2 2.9375 2 5 4 C4.34 5.65 3.68 7.3 3 9 C1 6 1 6 1 4 C-3.70424328 3.53042916 -3.70424328 3.53042916 -7.8125 5.375 C-8.204375 5.91125 -8.59625 6.4475 -9 7 C-9.66 7.66 -10.32 8.32 -11 9 C-11.66 9 -12.32 9 -13 9 C-12.71897086 5.62765029 -12.19628348 4.21360261 -9.875 1.6875 C-6.22304466 -0.45603901 -4.1758776 -0.59655394 0 0 Z " fill="#EFF3F2" transform="translate(1359,703)"/>
<path d="M0 0 C4.875 0.875 4.875 0.875 6 2 C6.41698173 6.58679904 5.97307133 9.41181047 3 13 C0.3125 13.8125 0.3125 13.8125 -2 14 C-0.66666667 11.33333333 0.66666667 8.66666667 2 6 C1.01 5.67 0.02 5.34 -1 5 C-0.67 3.35 -0.34 1.7 0 0 Z " fill="#F6F5ED" transform="translate(1377,717)"/>
<path d="M0 0 C4.875 0.875 4.875 0.875 6 2 C6.41698173 6.58679904 5.97307133 9.41181047 3 13 C0.3125 13.8125 0.3125 13.8125 -2 14 C-0.66666667 11.33333333 0.66666667 8.66666667 2 6 C1.01 5.67 0.02 5.34 -1 5 C-0.67 3.35 -0.34 1.7 0 0 Z " fill="#F6F5ED" transform="translate(1233,717)"/>
<path d="M0 0 C3.70012175 0.20944085 6.29249738 0.54647268 9.4375 2.5625 C11.73566228 6.14763316 11.28061483 8.79077755 11 13 C10.01 13.33 9.02 13.66 8 14 C7.34 11.03 6.68 8.06 6 5 C3.69 4.67 1.38 4.34 -1 4 C-1 1 -1 1 0 0 Z " fill="#F6F6F3" transform="translate(1305,703)"/>
<path d="M0 0 C3.70012175 0.20944085 6.29249738 0.54647268 9.4375 2.5625 C11.73566228 6.14763316 11.28061483 8.79077755 11 13 C10.01 13.33 9.02 13.66 8 14 C7.34 11.03 6.68 8.06 6 5 C3.69 4.67 1.38 4.34 -1 4 C-1 1 -1 1 0 0 Z " fill="#F6F6F3" transform="translate(1113,703)"/>
<path d="M0 0 C0.125 2.375 0.125 2.375 0 5 C-2 7 -2 7 -3.9453125 7.1953125 C-5.96354167 7.13020833 -7.98177083 7.06510417 -10 7 C-9.67 5.35 -9.34 3.7 -9 2 C-3.375 0 -3.375 0 0 0 Z " fill="#333749" transform="translate(1504,713)"/>
<path d="M0 0 C0.125 2.375 0.125 2.375 0 5 C-2 7 -2 7 -3.9453125 7.1953125 C-5.96354167 7.13020833 -7.98177083 7.06510417 -10 7 C-9.67 5.35 -9.34 3.7 -9 2 C-3.375 0 -3.375 0 0 0 Z " fill="#333749" transform="translate(1192,713)"/>
<path d="M0 0 C0.33 0 0.66 0 1 0 C1.33 2.64 1.66 5.28 2 8 C3.98 8 5.96 8 8 8 C8 8.99 8 9.98 8 11 C1.375 12.25 1.375 12.25 -2 10 C-2.39507893 5.65413172 -2.45331002 3.67996503 0 0 Z " fill="#EEF0EC" transform="translate(1209,760)"/>
<path d="M0 0 C6.75 0.75 6.75 0.75 9 3 C9.1953125 5.3828125 9.1953125 5.3828125 9.125 8.125 C9.10695313 9.03507813 9.08890625 9.94515625 9.0703125 10.8828125 C9.04710937 11.58148437 9.02390625 12.28015625 9 13 C8.01 13.33 7.02 13.66 6 14 C6.09765625 10.97265625 6.09765625 10.97265625 6.1953125 7.9453125 C6.18331689 5.76136355 6.18331689 5.76136355 4 4 C1.93125966 3.3574765 1.93125966 3.3574765 0 3 C0 2.01 0 1.02 0 0 Z " fill="#EFF5F6" transform="translate(1114,751)"/>
<path d="M0 0 C3.0625 0.1875 3.0625 0.1875 5.0625 2.1875 C5.0625 3.1775 5.0625 4.1675 5.0625 5.1875 C1.4325 5.1875 -2.1975 5.1875 -5.9375 5.1875 C-3.45398352 0.22046703 -3.45398352 0.22046703 0 0 Z " fill="#353949" transform="translate(1523.9375,753.8125)"/>
<path d="M0 0 C3.0625 0.1875 3.0625 0.1875 5.0625 2.1875 C5.0625 3.1775 5.0625 4.1675 5.0625 5.1875 C1.4325 5.1875 -2.1975 5.1875 -5.9375 5.1875 C-3.45398352 0.22046703 -3.45398352 0.22046703 0 0 Z " fill="#353949" transform="translate(1283.9375,753.8125)"/>
<path d="M0 0 C3.0625 0.1875 3.0625 0.1875 5.0625 2.1875 C5.0625 3.1775 5.0625 4.1675 5.0625 5.1875 C1.4325 5.1875 -2.1975 5.1875 -5.9375 5.1875 C-3.45398352 0.22046703 -3.45398352 0.22046703 0 0 Z " fill="#353949" transform="translate(1163.9375,753.8125)"/>
<path d="M0 0 C0.33 1.32 0.66 2.64 1 4 C-2.63 4 -6.26 4 -10 4 C-9.67 2.68 -9.34 1.36 -9 0 C-5.93109813 -1.53445094 -3.29905734 -0.54984289 0 0 Z " fill="#353845" transform="translate(1552,707)"/>
<path d="M0 0 C0.33 1.32 0.66 2.64 1 4 C-2.63 4 -6.26 4 -10 4 C-9.67 2.68 -9.34 1.36 -9 0 C-5.93109813 -1.53445094 -3.29905734 -0.54984289 0 0 Z " fill="#353845" transform="translate(1480,707)"/>
<path d="M0 0 C0.33 1.32 0.66 2.64 1 4 C-2.63 4 -6.26 4 -10 4 C-9.67 2.68 -9.34 1.36 -9 0 C-5.93109813 -1.53445094 -3.29905734 -0.54984289 0 0 Z " fill="#353845" transform="translate(1360,707)"/>
<path d="M0 0 C-0.33 4.29 -0.66 8.58 -1 13 C-2.32 13 -3.64 13 -5 13 C-4.85831863 11.56208484 -4.71148957 10.1246763 -4.5625 8.6875 C-4.48128906 7.88699219 -4.40007812 7.08648438 -4.31640625 6.26171875 C-4 4 -4 4 -3 1 C-1 0 -1 0 0 0 Z " fill="#C6E6F6" transform="translate(1500,758)"/>
<path d="M0 0 C0 1.32 0 2.64 0 4 C-1.36125 3.938125 -1.36125 3.938125 -2.75 3.875 C-5.9601818 3.99846853 -7.24530374 4.5751571 -10 6 C-10.99 5.67 -11.98 5.34 -13 5 C-12.67 3.68 -12.34 2.36 -12 1 C-11.67 1.66 -11.34 2.32 -11 3 C-10.484375 2.505 -9.96875 2.01 -9.4375 1.5 C-6.19319983 -0.49649241 -3.73782666 -0.21564385 0 0 Z " fill="#ECEDEC" transform="translate(1460,703)"/>
<path d="M0 0 C0.66 0 1.32 0 2 0 C2.33 1.32 2.66 2.64 3 4 C4.98 4 6.96 4 9 4 C9 4.99 9 5.98 9 7 C2.9453125 7.9765625 2.9453125 7.9765625 1 8 C-1 6 -1 6 -1.1875 3.4375 C-1 1 -1 1 0 0 Z " fill="#EBEAE6" transform="translate(1473,764)"/>
<path d="M0 0 C0.66 0 1.32 0 2 0 C2.33 1.32 2.66 2.64 3 4 C4.98 4 6.96 4 9 4 C9 4.99 9 5.98 9 7 C2.9453125 7.9765625 2.9453125 7.9765625 1 8 C-1 6 -1 6 -1.1875 3.4375 C-1 1 -1 1 0 0 Z " fill="#EBEAE6" transform="translate(1233,764)"/>
<path d="M0 0 C0.07654536 4.51617599 0.10228696 8.59085217 -1 13 C-2.32 13 -3.64 13 -5 13 C-4.719172 11.01926635 -4.42503386 9.04041552 -4.125 7.0625 C-3.96257812 5.96035156 -3.80015625 4.85820313 -3.6328125 3.72265625 C-3.42398437 2.82417969 -3.21515625 1.92570313 -3 1 C-1 0 -1 0 0 0 Z " fill="#E9F1EF" transform="translate(1253,758)"/>
<path d="M0 0 C0.07654536 4.51617599 0.10228696 8.59085217 -1 13 C-2.32 13 -3.64 13 -5 13 C-4.719172 11.01926635 -4.42503386 9.04041552 -4.125 7.0625 C-3.96257812 5.96035156 -3.80015625 4.85820313 -3.6328125 3.72265625 C-3.42398437 2.82417969 -3.21515625 1.92570313 -3 1 C-1 0 -1 0 0 0 Z " fill="#E9F1EF" transform="translate(1133,758)"/>
<path d="M0 0 C3.3 0 6.6 0 10 0 C10 0.99 10 1.98 10 3 C7.5 5.1875 7.5 5.1875 5 7 C5 5.68 5 4.36 5 3 C3.02 3 1.04 3 -1 3 C-0.67 2.01 -0.34 1.02 0 0 Z " fill="#D0D9DC" transform="translate(1205,742)"/>
<path d="M0 0 C0.99 0 1.98 0 3 0 C3 1.65 3 3.3 3 5 C5.97 5 8.94 5 12 5 C11.67 5.99 11.34 6.98 11 8 C11 7.34 11 6.68 11 6 C5.06 6 -0.88 6 -7 6 C-7 5.67 -7 5.34 -7 5 C-5.02 5 -3.04 5 -1 5 C-0.67 3.35 -0.34 1.7 0 0 Z " fill="#C6C8C5" transform="translate(1449,746)"/>
<path d="M0 0 C0.99 0 1.98 0 3 0 C3 1.65 3 3.3 3 5 C5.97 5 8.94 5 12 5 C11.67 5.99 11.34 6.98 11 8 C11 7.34 11 6.68 11 6 C5.06 6 -0.88 6 -7 6 C-7 5.67 -7 5.34 -7 5 C-5.02 5 -3.04 5 -1 5 C-0.67 3.35 -0.34 1.7 0 0 Z " fill="#C6C8C5" transform="translate(1353,746)"/>
<path d="M0 0 C1.67542976 0.28604898 3.34385343 0.61781233 5 1 C1.85714286 9.57142857 1.85714286 9.57142857 0 13 C-1.33106125 9.00681626 -1.13647721 5.16255487 -1 1 C-0.67 0.67 -0.34 0.34 0 0 Z " fill="#EAE8DB" transform="translate(1491,751)"/>
<path d="M0 0 C0.66 0.33 1.32 0.66 2 1 C1 3 0 5 -1 7 C2.63 7 6.26 7 10 7 C10 7.33 10 7.66 10 8 C6.04 8 2.08 8 -2 8 C-2.33 7.34 -2.66 6.68 -3 6 C-3.99 6.495 -3.99 6.495 -5 7 C-3.75023244 3.34683329 -3.32901247 2.21934164 0 0 Z " fill="#CFD6D9" transform="translate(1519,752)"/>
<path d="M0 0 C0.66 0.33 1.32 0.66 2 1 C1 3 0 5 -1 7 C2.63 7 6.26 7 10 7 C10 7.33 10 7.66 10 8 C6.04 8 2.08 8 -2 8 C-2.33 7.34 -2.66 6.68 -3 6 C-3.99 6.495 -3.99 6.495 -5 7 C-3.75023244 3.34683329 -3.32901247 2.21934164 0 0 Z " fill="#CFD6D9" transform="translate(1279,752)"/>
<path d="M0 0 C0.66 0.33 1.32 0.66 2 1 C1 3 0 5 -1 7 C2.63 7 6.26 7 10 7 C10 7.33 10 7.66 10 8 C6.04 8 2.08 8 -2 8 C-2.33 7.34 -2.66 6.68 -3 6 C-3.99 6.495 -3.99 6.495 -5 7 C-3.75023244 3.34683329 -3.32901247 2.21934164 0 0 Z " fill="#CFD6D9" transform="translate(1159,752)"/>
<path d="M0 0 C3.37462715 0.54723683 5.08235 1.0549 8 3 C7.34 3.66 6.68 4.32 6 5 C5.30251417 6.31747324 4.63040043 7.64914193 4 9 C3.34 8.67 2.68 8.34 2 8 C2 6.35 2 4.7 2 3 C1.01 2.67 0.02 2.34 -1 2 C-0.67 1.34 -0.34 0.68 0 0 Z " fill="#F5F5F0" transform="translate(1496,751)"/>
<path d="M0 0 C0.33 0 0.66 0 1 0 C1 9.24 1 18.48 1 28 C0.34 28 -0.32 28 -1 28 C-1.5625 26.0625 -1.5625 26.0625 -2 24 C-1.67 23.67 -1.34 23.34 -1 23 C-0.84259395 21.29436222 -0.74906608 19.58272756 -0.68359375 17.87109375 C-0.64169922 16.83662109 -0.59980469 15.80214844 -0.55664062 14.73632812 C-0.51732422 13.64771484 -0.47800781 12.55910156 -0.4375 11.4375 C-0.37272461 9.7987793 -0.37272461 9.7987793 -0.30664062 8.12695312 C-0.20017932 5.41810436 -0.09816484 2.70916008 0 0 Z " fill="#FFFFF5" transform="translate(1338,695)"/>
<path d="M0 0 C0.33 0 0.66 0 1 0 C1.91319053 8.55693348 1.91319053 8.55693348 -0.265625 12 C-1.875 13.625 -1.875 13.625 -5 16 C-5.66 16 -6.32 16 -7 16 C-5.92598892 13.08482708 -5.22189824 11.22189824 -3 9 C-2.01 9 -1.02 9 0 9 C0 6.03 0 3.06 0 0 Z " fill="#EDE8D7" transform="translate(1123,755)"/>
<path d="M0 0 C0.33 0 0.66 0 1 0 C0.85805236 2.06277107 0.71127784 4.12521031 0.5625 6.1875 C0.48128906 7.33605469 0.40007812 8.48460937 0.31640625 9.66796875 C0.04596188 12.51598171 -0.37521747 15.21210482 -1 18 C-3.35159273 14.68010438 -3.0349019 11.95798331 -2.42578125 8.0390625 C-1.84748315 5.2695982 -0.99244005 2.6465068 0 0 Z " fill="#FCF2DC" transform="translate(1267,753)"/>
<path d="M0 0 C0.33 0 0.66 0 1 0 C0.85805236 2.06277107 0.71127784 4.12521031 0.5625 6.1875 C0.48128906 7.33605469 0.40007812 8.48460937 0.31640625 9.66796875 C0.04596188 12.51598171 -0.37521747 15.21210482 -1 18 C-3.35159273 14.68010438 -3.0349019 11.95798331 -2.42578125 8.0390625 C-1.84748315 5.2695982 -0.99244005 2.6465068 0 0 Z " fill="#FCF2DC" transform="translate(1147,753)"/>
<path d="M0 0 C1.26823485 3.65393537 0.75715321 6.49070026 0.0625 10.25 C-0.13214844 11.32765625 -0.32679687 12.4053125 -0.52734375 13.515625 C-0.68332031 14.33546875 -0.83929687 15.1553125 -1 16 C-1.33 16 -1.66 16 -2 16 C-3.45295405 6.00437637 -3.45295405 6.00437637 -1.5625 1.8125 C-1.046875 1.214375 -0.53125 0.61625 0 0 Z " fill="#F8EFD9" transform="translate(1411,755)"/>
<path d="M0 0 C1.26823485 3.65393537 0.75715321 6.49070026 0.0625 10.25 C-0.13214844 11.32765625 -0.32679687 12.4053125 -0.52734375 13.515625 C-0.68332031 14.33546875 -0.83929687 15.1553125 -1 16 C-1.33 16 -1.66 16 -2 16 C-3.45295405 6.00437637 -3.45295405 6.00437637 -1.5625 1.8125 C-1.046875 1.214375 -0.53125 0.61625 0 0 Z " fill="#F8EFD9" transform="translate(1339,755)"/>
<path d="M0 0 C0.66 0.33 1.32 0.66 2 1 C2 3.64 2 6.28 2 9 C0.68 8.67 -0.64 8.34 -2 8 C-1.125 1.125 -1.125 1.125 0 0 Z " fill="#DDEDF2" transform="translate(1505,762)"/>
<path d="M0 0 C-0.57352893 3.87132028 -2.48704352 6.08172796 -5 9 C-5 6.36 -5 3.72 -5 1 C-3 0 -3 0 0 0 Z " fill="#D0DDE3" transform="translate(1413,751)"/>
<path d="M0 0 C-0.57352893 3.87132028 -2.48704352 6.08172796 -5 9 C-5 6.36 -5 3.72 -5 1 C-3 0 -3 0 0 0 Z " fill="#D0DDE3" transform="translate(1341,751)"/>
<path d="M0 0 C0.33 0 0.66 0 1 0 C1 5.28 1 10.56 1 16 C0.01 16 -0.98 16 -2 16 C-1.34 10.72 -0.68 5.44 0 0 Z " fill="#A0D3EF" transform="translate(1264,755)"/>
<path d="M0 0 C0.33 0 0.66 0 1 0 C1 5.28 1 10.56 1 16 C0.01 16 -0.98 16 -2 16 C-1.34 10.72 -0.68 5.44 0 0 Z " fill="#A0D3EF" transform="translate(1144,755)"/>
<path d="M0 0 C0.99 1.32 1.98 2.64 3 4 C1.1875 6 1.1875 6 -1 8 C-1.99 8 -2.98 8 -4 8 C-2.66666667 5.33333333 -1.33333333 2.66666667 0 0 Z " fill="#D8E6E7" transform="translate(1379,723)"/>
<path d="M0 0 C0.99 1.32 1.98 2.64 3 4 C1.1875 6 1.1875 6 -1 8 C-1.99 8 -2.98 8 -4 8 C-2.66666667 5.33333333 -1.33333333 2.66666667 0 0 Z " fill="#D8E6E7" transform="translate(1235,723)"/>
<path d="M0 0 C1.09898702 3.29696105 0.87124444 4.40494903 0.0625 7.6875 C-0.22947266 8.89986328 -0.22947266 8.89986328 -0.52734375 10.13671875 C-0.68332031 10.75160156 -0.83929687 11.36648438 -1 12 C-3 9 -3 9 -2.75 5.4375 C-2 2 -2 2 0 0 Z " fill="#FBF5E5" transform="translate(1213,745)"/>
<path d="M0 0 C0.99 0.33 1.98 0.66 3 1 C2.67 2.65 2.34 4.3 2 6 C0.68 5.67 -0.64 5.34 -2 5 C-1.125 1.125 -1.125 1.125 0 0 Z " fill="#DDE5E7" transform="translate(1476,742)"/>
<path d="M0 0 C0.99 0.33 1.98 0.66 3 1 C2.67 2.65 2.34 4.3 2 6 C0.68 5.67 -0.64 5.34 -2 5 C-1.125 1.125 -1.125 1.125 0 0 Z " fill="#DDE5E7" transform="translate(1236,742)"/>
<path d="M0 0 C1.9375 0.6875 1.9375 0.6875 2.9375 2.6875 C1.98875 2.955625 1.04 3.22375 0.0625 3.5 C-3.31517273 4.43736588 -3.31517273 4.43736588 -5.0625 7.6875 C-4.80688677 5.3443787 -4.46979228 3.00906597 -4.0625 0.6875 C-2.0625 -0.3125 -2.0625 -0.3125 0 0 Z " fill="#E1DBD0" transform="translate(1498.0625,711.3125)"/>
<path d="M0 0 C1.9375 0.6875 1.9375 0.6875 2.9375 2.6875 C1.98875 2.955625 1.04 3.22375 0.0625 3.5 C-3.31517273 4.43736588 -3.31517273 4.43736588 -5.0625 7.6875 C-4.80688677 5.3443787 -4.46979228 3.00906597 -4.0625 0.6875 C-2.0625 -0.3125 -2.0625 -0.3125 0 0 Z " fill="#E1DBD0" transform="translate(1186.0625,711.3125)"/>
<path d="M0 0 C-2.17424117 2.50037734 -3.73045798 3.43628586 -7 4 C-7.33 3.01 -7.66 2.02 -8 1 C-4.93251126 -0.86240388 -3.40254489 -1.2151946 0 0 Z " fill="#E7ECEE" transform="translate(1499,704)"/>
<path d="M0 0 C-2.17424117 2.50037734 -3.73045798 3.43628586 -7 4 C-7.33 3.01 -7.66 2.02 -8 1 C-4.93251126 -0.86240388 -3.40254489 -1.2151946 0 0 Z " fill="#E7ECEE" transform="translate(1187,704)"/>
<path d="M0 0 C2 2 2 2 2.125 5.125 C2.08375 6.07375 2.0425 7.0225 2 8 C1.01 8 0.02 8 -1 8 C-1 7.01 -1 6.02 -1 5 C-1.66 4.67 -2.32 4.34 -3 4 C-2.34 3.67 -1.68 3.34 -1 3 C-0.67 2.01 -0.34 1.02 0 0 Z " fill="#D8EDF8" transform="translate(1407,763)"/>
<path d="M0 0 C2 2 2 2 2.125 5.125 C2.08375 6.07375 2.0425 7.0225 2 8 C1.01 8 0.02 8 -1 8 C-1 7.01 -1 6.02 -1 5 C-1.66 4.67 -2.32 4.34 -3 4 C-2.34 3.67 -1.68 3.34 -1 3 C-0.67 2.01 -0.34 1.02 0 0 Z " fill="#D8EDF8" transform="translate(1335,763)"/>
<path d="M0 0 C0.99 0 1.98 0 3 0 C3 1.65 3 3.3 3 5 C2.01 5.495 2.01 5.495 1 6 C0.34 7.32 -0.32 8.64 -1 10 C-0.67 6.7 -0.34 3.4 0 0 Z " fill="#BAE0F3" transform="translate(1472,759)"/>
<path d="M0 0 C0.99 0 1.98 0 3 0 C3 1.65 3 3.3 3 5 C2.01 5.495 2.01 5.495 1 6 C0.34 7.32 -0.32 8.64 -1 10 C-0.67 6.7 -0.34 3.4 0 0 Z " fill="#BAE0F3" transform="translate(1232,759)"/>
<path d="M0 0 C2.625 -0.1875 2.625 -0.1875 5 0 C5.33 1.32 5.66 2.64 6 4 C3.36 3.67 0.72 3.34 -2 3 C-1.34 2.01 -0.68 1.02 0 0 Z " fill="#F7F5F5" transform="translate(1402,751)"/>
<path d="M0 0 C2.625 -0.1875 2.625 -0.1875 5 0 C5.33 1.32 5.66 2.64 6 4 C3.36 3.67 0.72 3.34 -2 3 C-1.34 2.01 -0.68 1.02 0 0 Z " fill="#F7F5F5" transform="translate(1330,751)"/>
<path d="M0 0 C0 1.65 0 3.3 0 5 C-1.32 5.33 -2.64 5.66 -4 6 C-4 4.68 -4 3.36 -4 2 C-1 0 -1 0 0 0 Z " fill="#EAEBDD" transform="translate(1491,765)"/>
<path d="M0 0 C1.15941038 3.47823115 0.70820884 5.45895578 0 9 C-0.99 9 -1.98 9 -3 9 C-2.25 2.25 -2.25 2.25 0 0 Z " fill="#FAECD5" transform="translate(1499,762)"/>
<path d="M0 0 C0.66 0.66 1.32 1.32 2 2 C3.32 1.34 4.64 0.68 6 0 C6.33 0.99 6.66 1.98 7 3 C5.1875 4.0625 5.1875 4.0625 3 5 C2.01 4.67 1.02 4.34 0 4 C0 2.68 0 1.36 0 0 Z " fill="#E9E3D6" transform="translate(1447,704)"/>
<path d="M0 0 C1.32 0.33 2.64 0.66 4 1 C3.67 3.64 3.34 6.28 3 9 C1.35173889 6.03312999 0.55728913 3.34373475 0 0 Z " fill="#D8E0D9" transform="translate(1505,758)"/>
<path d="M0 0 C0.66 0.33 1.32 0.66 2 1 C1.01 2.485 1.01 2.485 0 4 C-0.39013716 5.9896995 -0.73202649 7.99019869 -1 10 C-1.33 10 -1.66 10 -2 10 C-2.33 7.36 -2.66 4.72 -3 2 C-2.01 1.34 -1.02 0.68 0 0 Z " fill="#FDFAEA" transform="translate(1109,755)"/>
</svg>
